<?xml version="1.0" encoding="UTF-8" standalone="no"?>
<!-- Created with Inkscape (http://www.inkscape.org/) -->

<svg
   xmlns:dc="http://purl.org/dc/elements/1.1/"
   xmlns:cc="http://creativecommons.org/ns#"
   xmlns:rdf="http://www.w3.org/1999/02/22-rdf-syntax-ns#"
   xmlns:svg="http://www.w3.org/2000/svg"
   xmlns="http://www.w3.org/2000/svg"
   xmlns:xlink="http://www.w3.org/1999/xlink"
   xmlns:sodipodi="http://sodipodi.sourceforge.net/DTD/sodipodi-0.dtd"
   xmlns:inkscape="http://www.inkscape.org/namespaces/inkscape"
   width="297mm"
   height="210mm"
   viewBox="0 0 297 210"
   version="1.1"
   id="svg8"
   inkscape:version="0.92.2 5c3e80d, 2017-08-06"
   sodipodi:docname="bg-anomaly.svg"
   inkscape:export-filename="/home/holger/coding/CryptoCrawler/assets/bg-mongodb.png"
   inkscape:export-xdpi="30.48"
   inkscape:export-ydpi="30.48">
  <defs
     id="defs2">
    <linearGradient
       inkscape:collect="always"
       id="linearGradient2575">
      <stop
         style="stop-color:#ffffff;stop-opacity:1"
         offset="0"
         id="stop2571" />
      <stop
         style="stop-color:#ffffff;stop-opacity:1"
         offset="1"
         id="stop2573" />
    </linearGradient>
    <linearGradient
       inkscape:collect="always"
       xlink:href="#linearGradient2575"
       id="linearGradient2577"
       x1="2189.9414"
       y1="132.83672"
       x2="-742.14362"
       y2="1099.2631"
       gradientUnits="userSpaceOnUse" />
  </defs>
  <sodipodi:namedview
     id="base"
     pagecolor="#ffffff"
     bordercolor="#666666"
     borderopacity="1.0"
     inkscape:pageopacity="0.0"
     inkscape:pageshadow="2"
     inkscape:zoom="0.175"
     inkscape:cx="3299.7671"
     inkscape:cy="-1004.6433"
     inkscape:document-units="mm"
     inkscape:current-layer="layer1"
     showgrid="false"
     inkscape:window-width="1920"
     inkscape:window-height="1052"
     inkscape:window-x="1920"
     inkscape:window-y="0"
     inkscape:window-maximized="1">
    <inkscape:grid
       type="xygrid"
       id="grid2545" />
  </sodipodi:namedview>
  <metadata
     id="metadata5">
    <rdf:RDF>
      <cc:Work
         rdf:about="">
        <dc:format>image/svg+xml</dc:format>
        <dc:type
           rdf:resource="http://purl.org/dc/dcmitype/StillImage" />
        <dc:title />
      </cc:Work>
    </rdf:RDF>
  </metadata>
  <g
     inkscape:label="Layer 1"
     inkscape:groupmode="layer"
     id="layer1"
     transform="translate(0,-87)">
    <rect
       style="fill:#00a91f;fill-opacity:1;stroke:#b3b3b3;stroke-width:1.46499979;stroke-linejoin:round;stroke-miterlimit:4;stroke-dasharray:none;stroke-opacity:1"
       id="rect4504"
       width="1598.5349"
       height="898.53503"
       x="-160.35498"
       y="-130.94971" />
    <path
       sodipodi:nodetypes="cc"
       inkscape:connector-curvature="0"
       id="path4634"
       d="M 348.94608,556.78822 C 508.15051,371.23584 636.56058,296.32952 878.11276,258.94297"
       style="fill:none;stroke:none;stroke-width:0.26458332px;stroke-linecap:butt;stroke-linejoin:miter;stroke-opacity:1" />
    <g
       id="g2439"
       transform="matrix(0.37290109,0,0,0.37292025,585.73942,288.62852)"
       style="opacity:1;fill:none;fill-rule:nonzero;stroke:none;stroke-width:0.7095086;stroke-linecap:butt;stroke-linejoin:miter;stroke-miterlimit:10">
      <path
         id="path2245"
         style="opacity:1;fill:#ffffff;fill-opacity:0;fill-rule:nonzero;stroke:#000000;stroke-width:0.7095086;stroke-linecap:butt;stroke-linejoin:miter;stroke-miterlimit:10;stroke-opacity:0"
         d="M 0.80003552,0.80015233 H 2251.5454 V 1252.9468 H 0.80003552 Z"
         inkscape:connector-curvature="0" />
      <path
         id="path2247"
         style="opacity:1;fill:#ffffff;fill-opacity:0;fill-rule:nonzero;stroke:#000000;stroke-width:0.7095086;stroke-linecap:butt;stroke-linejoin:miter;stroke-miterlimit:10;stroke-opacity:0"
         d="M 91.005863,60.216604 H 2207.5426 V 1142.9164 H 91.005863 Z"
         inkscape:connector-curvature="0" />
      <path
         id="path2251"
         style="opacity:1;fill:none;fill-rule:nonzero;stroke:#000000;stroke-width:0.7095086;stroke-linecap:butt;stroke-linejoin:miter;stroke-miterlimit:10;stroke-dasharray:0.7095086, 0.7095086;stroke-opacity:0.15"
         d="m 148.20956,1142.9164 v 0 V 60.216604"
         inkscape:connector-curvature="0" />
      <path
         id="path2255"
         style="opacity:1;fill:none;fill-rule:nonzero;stroke:#000000;stroke-width:0.7095086;stroke-linecap:butt;stroke-linejoin:miter;stroke-miterlimit:10;stroke-dasharray:0.7095086, 0.7095086;stroke-opacity:0.15"
         d="m 495.83201,1142.9164 v 0 V 60.216604"
         inkscape:connector-curvature="0" />
      <path
         id="path2259"
         style="opacity:1;fill:none;fill-rule:nonzero;stroke:#000000;stroke-width:0.7095086;stroke-linecap:butt;stroke-linejoin:miter;stroke-miterlimit:10;stroke-dasharray:0.7095086, 0.7095086;stroke-opacity:0.15"
         d="m 834.65389,1142.9164 v 0 V 60.216604"
         inkscape:connector-curvature="0" />
      <path
         id="path2263"
         style="opacity:1;fill:none;fill-rule:nonzero;stroke:#000000;stroke-width:0.7095086;stroke-linecap:butt;stroke-linejoin:miter;stroke-miterlimit:10;stroke-dasharray:0.7095086, 0.7095086;stroke-opacity:0.15"
         d="m 1182.2763,1142.9164 v 0 V 60.216604"
         inkscape:connector-curvature="0" />
      <path
         id="path2267"
         style="opacity:1;fill:none;fill-rule:nonzero;stroke:#000000;stroke-width:0.7095086;stroke-linecap:butt;stroke-linejoin:miter;stroke-miterlimit:10;stroke-dasharray:0.7095086, 0.7095086;stroke-opacity:0.15"
         d="m 1521.0982,1142.9164 v 0 V 60.216604"
         inkscape:connector-curvature="0" />
      <path
         id="path2271"
         style="opacity:1;fill:none;fill-rule:nonzero;stroke:#000000;stroke-width:0.7095086;stroke-linecap:butt;stroke-linejoin:miter;stroke-miterlimit:10;stroke-dasharray:0.7095086, 0.7095086;stroke-opacity:0.15"
         d="m 1868.7207,1142.9164 v 0 V 60.216604"
         inkscape:connector-curvature="0" />
      <path
         id="path2293"
         style="opacity:0.39;fill:#00a91f;fill-rule:nonzero;stroke:url(#linearGradient2577);stroke-width:18.31269672;stroke-linecap:butt;stroke-linejoin:round;stroke-miterlimit:10;stroke-opacity:1;stroke-dasharray:none;fill-opacity:1"
         d="m 97.606289,986.67312 11.000711,24.20668 11.00071,-48.41338 11.00071,-11.00305 11.00071,-24.2067 11.00071,59.41645 11.00071,-107.82986 11.00071,-13.20365 11.00071,37.41036 13.20086,35.20974 11.00071,13.20366 11.00071,-24.2067 11.00071,-37.41036 11.00071,-59.41645 11.00071,24.2067 11.00071,-61.61706 11.00071,-35.20975 13.20085,169.44692 11.00071,-72.62011 11.00071,24.2067 11.00071,48.41341 11.00071,-13.20366 11.00071,59.41645 11.00072,-11.00304 11.00071,35.20975 11.00071,48.41343 13.20085,-11.0031 11.00071,11.0031 11.00071,13.2036 11.00071,24.2067 11.00071,-72.6201 11.00071,-24.20668 11.00071,-59.41645 11.00071,-24.2067 13.20085,-110.03047 11.00072,-46.21279 11.00071,-110.03047 11.00071,85.82376 11.00071,48.41341 11.00071,-193.65362 11.00071,-59.41645 11.00071,72.6201 11.00071,59.41646 13.20085,-24.20671 11.00071,35.20975 11.00071,13.20366 11.00071,59.41645 11.00071,59.41645 11.00071,-59.41645 11.00071,-35.20975 11.00071,-61.61706 13.20086,-83.62315 11.00071,37.41035 11.00071,-13.20365 11.00071,-96.82681 11.00071,-48.4134 11.00071,13.20365 11.00071,11.00305 11.00071,-46.2128 11.00071,22.0061 13.20085,-94.6262 11.00071,24.2067 11.00072,48.4134 11.00071,-61.61706 11.00071,-35.20975 11.00071,-24.2067 11.00071,48.41341 11.00071,48.4134 13.20085,204.65666 11.00071,167.24631 11.00071,132.03656 11.00071,37.41036 11.00071,-37.41036 11.00071,-83.62315 11.00071,11.00304 11.00071,-107.82985 11.00071,37.41036 13.20086,24.2067 11.00071,11.00304 11.00071,-48.4134 11.00071,-48.41341 11.00069,13.20366 11.0007,-85.82376 11.0007,-59.41645 11.0008,-48.41341 13.2008,-48.4134 11.0007,-35.20975 11.0007,-11.00305 11.0007,-96.82681 11.0007,24.20671 11.0008,-61.61706 11.0007,-59.41646 11.0007,24.20671 11.0007,59.41645 13.2008,-24.2067 11.0007,24.2067 11.0008,-24.2067 11.0007,-11.00305 11.0007,72.62011 11.0007,-13.20366 11.0007,37.41036 11.0007,-72.62011 11.0007,-48.4134 13.2009,11.00304 11.0007,37.41036 11.0007,-59.41645 11.0007,-13.20366 11.0007,-48.4134 11.0007,-24.2067 11.0007,37.41036 11.0007,-13.20366 13.2009,-72.620108 11.0007,61.617058 11.0007,-48.4134 11.0007,72.62011 11.0007,-85.823768 11.0008,48.413408 11.0007,-24.20671 11.0007,13.20366 11.0007,24.2067 13.2008,107.82986 11.0007,24.2067 11.0008,-48.4134 11.0007,-48.41341 11.0007,107.82986 11.0007,-35.20975 11.0007,145.24021 11.0007,-13.20365 13.2009,-48.41341 11.0007,13.20366 11.0007,-96.82681 11.0007,-72.62011 11.0007,13.20366 h 11.0007 11.0007 l 11.0007,46.21279 11.0007,13.20366 13.2009,-24.2067 11.0007,59.41645 11.0007,-83.62316 11.0007,121.03352 11.0007,59.41645 11.0008,-24.20671 11.0007,37.41036 11.0007,22.0061 13.2008,72.6201 11.0007,-11.00304 11.0007,-24.20671 11.0008,-37.41035 11.0007,13.20365 11.0007,35.20975 11.0007,37.41036 11.0007,-24.2067 11.0007,48.4134 h 13.2009 l 11.0007,-13.20366 11.0007,-11.00304 11.0007,-72.62011 11.0007,-24.2067 11.0007,-83.62315 11.0007,35.20974 11.0007,-24.2067 13.2009,72.62011 11.0007,-35.20975 11.0007,24.2067 11.0007,11.00305 11.0007,-59.41645 11.0007,-121.03351 11.0008,-24.20671 11.0007,-11.00304 11.0007,94.6262 h 13.2008 l 11.0007,-35.20975 11.0007,24.2067 11.0008,-37.41036 11.0007,-46.21279 11.0007,-85.82377 11.0007,37.41036 11.0007,-13.20365 13.2009,-59.416454 11.0007,35.209744 h 11.0007 l 11.0007,61.61707 11.0007,-85.823768 11.0007,37.410358 11.0007,11.00305 11.0007,-11.00305 11.0007,35.20975 M 89.905792,59.116299 v 0"
         inkscape:connector-curvature="0" />
      <rect
         id="rect2295"
         style="opacity:1;fill-rule:nonzero;stroke:none;stroke-width:0;stroke-linecap:butt;stroke-linejoin:miter;stroke-miterlimit:10"
         height="1087.101"
         width="2120.937"
         ry="0"
         rx="0"
         y="-0.30015233"
         x="-0.30003554" />
      <path
         id="path2299"
         style="opacity:1;fill:none;fill-rule:nonzero;stroke:#000000;stroke-width:0.7095086;stroke-linecap:butt;stroke-linejoin:miter;stroke-miterlimit:10;stroke-opacity:0"
         d="M 0.80003552,66.818431 H 2119.5369 v 0"
         inkscape:connector-curvature="0" />
      <path
         id="path2301"
         style="opacity:1;fill:none;fill-rule:nonzero;stroke:#000000;stroke-width:0.7095086;stroke-linecap:butt;stroke-linejoin:miter;stroke-miterlimit:10;stroke-opacity:0"
         d="M 0.80003552,66.818432 H 2119.5369"
         inkscape:connector-curvature="0" />
      <path
         id="path2303"
         style="opacity:0;fill:none;fill-rule:nonzero;stroke:#000000;stroke-width:0.7095086;stroke-linecap:butt;stroke-linejoin:miter;stroke-miterlimit:10;stroke-opacity:0"
         d="M 0.80003552,0.80015233 V 66.818431"
         inkscape:connector-curvature="0" />
      <path
         id="path2307"
         style="opacity:1;fill:none;fill-rule:nonzero;stroke:#000000;stroke-width:0.7095086;stroke-linecap:butt;stroke-linejoin:miter;stroke-miterlimit:10;stroke-opacity:0"
         d="M 91.005863,60.216604 V 1142.9164"
         inkscape:connector-curvature="0" />
      <path
         id="path2309"
         style="opacity:0;fill:none;fill-rule:nonzero;stroke:#cc0000;stroke-width:0.7095086;stroke-linecap:butt;stroke-linejoin:miter;stroke-miterlimit:10;stroke-opacity:1"
         d="m 2128.3375,60.216604 v 0 1082.699796"
         inkscape:connector-curvature="0" />
      <path
         id="path2315"
         style="opacity:1;fill:none;fill-rule:nonzero;stroke:#bbbbbb;stroke-width:0.7095086;stroke-linecap:butt;stroke-linejoin:miter;stroke-miterlimit:10;stroke-opacity:0"
         d="m 97.606289,1202.3328 11.000711,2.2007 11.00071,-2.2007 11.00071,-2.2006 h 11.00071 l 11.00071,2.2006 11.00071,-6.6018 h 11.00071 l 13.20086,2.2006 11.00071,2.2006 h 11.00071 11.00071 l 11.00071,-2.2006 11.00071,-4.4012 11.00071,2.2006 11.00071,-4.4012 13.20085,-2.2006 11.00071,11.003 11.00071,-4.4012 h 11.00071 l 11.00071,4.4012 11.00071,-2.2006 11.00071,4.4012 h 11.00072 11.00071 l 13.20085,4.4013 11.00071,-2.2006 11.00071,2.2006 h 11.00071 l 11.00071,2.2006 11.00071,-4.4012 11.00071,-2.2007 11.00071,-2.2006 13.20085,-2.2006 11.00071,-6.6018 11.00072,-2.2006 11.00071,-6.6018 11.00071,6.6018 11.00071,2.2006 11.00071,-11.003 11.00071,-4.4013 13.20085,4.4013 11.00071,4.4012 11.00071,-2.2006 11.00071,2.2006 h 11.00071 l 11.00071,4.4012 11.00071,2.2006 11.00071,-2.2006 13.20086,-2.2006 11.00071,-4.4012 11.00071,-4.4013 11.00071,2.2007 h 11.00071 l 11.00071,-4.4013 11.00071,-4.4012 11.00071,2.2006 h 13.20085 l 11.00071,-2.2006 h 11.00071 l 11.00071,-4.4012 11.00071,2.2006 11.00072,2.2006 11.00071,-4.4012 11.00071,-2.2006 h 13.20085 l 11.00071,2.2006 11.00071,2.2006 11.00071,11.0031 11.00071,8.8024 11.00071,8.8024 11.00071,2.2006 11.00071,-2.2006 11.00071,-4.4012 h 13.20086 l 11.00071,-6.6018 11.00071,2.2006 11.00071,2.2006 h 11.00071 l 11.00071,-2.2006 11.00071,-2.2006 h 11.00069 l 13.2009,-4.4012 11.0007,-4.4013 11.0007,-2.2006 11.0007,-2.2006 11.0007,-2.2006 h 11.0007 l 11.0007,-6.6018 11.0007,2.2006 13.2009,-4.4012 11.0007,-2.2006 11.0007,2.2006 11.0007,2.2006 11.0007,-2.2006 11.0007,2.2006 11.0008,-2.2006 h 11.0007 l 13.2008,4.4012 h 11.0007 l 11.0007,2.2006 11.0008,-4.4012 11.0007,-2.2006 h 11.0007 l 11.0007,2.2006 11.0007,-4.4012 h 13.2008 l 11.0008,-2.2006 11.0007,-2.2006 11.0007,2.2006 h 11.0007 l 11.0007,-4.4013 11.0007,2.2007 11.0007,-2.2007 13.2009,4.4013 11.0007,-4.4013 11.0007,2.2007 h 11.0007 11.0007 11.0007 l 11.0007,6.6018 11.0007,2.2006 11.0008,-2.2006 13.2008,-4.4012 11.0007,6.6018 11.0007,-2.2006 11.0007,8.8024 11.0008,-2.2006 11.0007,-2.2006 11.0007,2.2006 11.0007,-6.6018 13.2008,-4.4012 11.0007,2.2006 h 11.0008 11.0007 l 11.0007,2.2006 h 11.0007 11.0007 l 11.0007,2.2006 13.2009,-4.4012 11.0007,6.6018 11.0007,2.2006 h 11.0007 l 11.0007,2.2006 h 11.0007 l 11.0007,4.4012 h 11.0007 l 13.2009,-2.2006 11.0007,-2.2006 11.0007,2.2006 11.0007,2.2006 h 11.0007 11.0007 l 11.0008,2.2006 h 11.0007 13.2008 l 11.0007,-2.2006 11.0007,-2.2006 11.0007,-2.2006 11.0008,-4.4012 11.0007,2.2006 11.0007,-2.2006 11.0007,4.4012 13.2008,-2.2006 11.0008,2.2006 h 11.0007 l 11.0007,-2.2006 11.0007,-6.6018 11.0007,-2.2006 h 11.0007 l 11.0007,4.4012 h 11.0007 l 13.2009,-2.2006 11.0007,2.2006 11.0007,-2.2006 11.0007,-2.2006 11.0007,-4.4012 h 11.0007 11.0007 l 11.0008,-2.2007 13.2008,2.2007 h 11.0007 l 11.0007,2.2006 11.0007,-4.4013 11.0007,2.2007 h 11.0008 11.0007 l 11.0007,2.2006 M 89.905792,1144.0167 v 0"
         inkscape:connector-curvature="0" />
      <path
         id="path2319"
         style="opacity:1;fill:none;fill-rule:nonzero;stroke:#888888;stroke-width:0.7095086;stroke-linecap:butt;stroke-linejoin:miter;stroke-miterlimit:10;stroke-opacity:0"
         d="m 97.606289,1202.3328 11.000711,2.2007 11.00071,-2.2007 11.00071,-2.2006 h 11.00071 l 11.00071,2.2006 11.00071,-6.6018 h 11.00071 l 13.20086,2.2006 11.00071,2.2006 h 11.00071 11.00071 l 11.00071,-2.2006 11.00071,-4.4012 11.00071,2.2006 11.00071,-4.4012 13.20085,-2.2006 11.00071,11.003 11.00071,-4.4012 h 11.00071 l 11.00071,4.4012 11.00071,-2.2006 11.00071,4.4012 h 11.00072 11.00071 l 13.20085,4.4013 11.00071,-2.2006 11.00071,2.2006 h 11.00071 l 11.00071,2.2006 11.00071,-4.4012 11.00071,-2.2007 11.00071,-2.2006 13.20085,-2.2006 11.00071,-6.6018 11.00072,-2.2006 11.00071,-6.6018 11.00071,6.6018 11.00071,2.2006 11.00071,-11.003 11.00071,-4.4013 13.20085,4.4013 11.00071,4.4012 11.00071,-2.2006 11.00071,2.2006 h 11.00071 l 11.00071,4.4012 11.00071,2.2006 11.00071,-2.2006 13.20086,-2.2006 11.00071,-4.4012 11.00071,-4.4013 11.00071,2.2007 h 11.00071 l 11.00071,-4.4013 11.00071,-4.4012 11.00071,2.2006 h 13.20085 l 11.00071,-2.2006 h 11.00071 l 11.00071,-4.4012 11.00071,2.2006 11.00072,2.2006 11.00071,-4.4012 11.00071,-2.2006 h 13.20085 l 11.00071,2.2006 11.00071,2.2006 11.00071,11.0031 11.00071,8.8024 11.00071,8.8024 11.00071,2.2006 11.00071,-2.2006 11.00071,-4.4012 h 13.20086 l 11.00071,-6.6018 11.00071,2.2006 11.00071,2.2006 h 11.00071 l 11.00071,-2.2006 11.00071,-2.2006 h 11.00069 l 13.2009,-4.4012 11.0007,-4.4013 11.0007,-2.2006 11.0007,-2.2006 11.0007,-2.2006 h 11.0007 l 11.0007,-6.6018 11.0007,2.2006 13.2009,-4.4012 11.0007,-2.2006 11.0007,2.2006 11.0007,2.2006 11.0007,-2.2006 11.0007,2.2006 11.0008,-2.2006 h 11.0007 l 13.2008,4.4012 h 11.0007 l 11.0007,2.2006 11.0008,-4.4012 11.0007,-2.2006 h 11.0007 l 11.0007,2.2006 11.0007,-4.4012 h 13.2008 l 11.0008,-2.2006 11.0007,-2.2006 11.0007,2.2006 h 11.0007 l 11.0007,-4.4013 11.0007,2.2007 11.0007,-2.2007 13.2009,4.4013 11.0007,-4.4013 11.0007,2.2007 h 11.0007 11.0007 11.0007 l 11.0007,6.6018 11.0007,2.2006 11.0008,-2.2006 13.2008,-4.4012 11.0007,6.6018 11.0007,-2.2006 11.0007,8.8024 11.0008,-2.2006 11.0007,-2.2006 11.0007,2.2006 11.0007,-6.6018 13.2008,-4.4012 11.0007,2.2006 h 11.0008 11.0007 l 11.0007,2.2006 h 11.0007 11.0007 l 11.0007,2.2006 13.2009,-4.4012 11.0007,6.6018 11.0007,2.2006 h 11.0007 l 11.0007,2.2006 h 11.0007 l 11.0007,4.4012 h 11.0007 l 13.2009,-2.2006 11.0007,-2.2006 11.0007,2.2006 11.0007,2.2006 h 11.0007 11.0007 l 11.0008,2.2006 h 11.0007 13.2008 l 11.0007,-2.2006 11.0007,-2.2006 11.0007,-2.2006 11.0008,-4.4012 11.0007,2.2006 11.0007,-2.2006 11.0007,4.4012 13.2008,-2.2006 11.0008,2.2006 h 11.0007 l 11.0007,-2.2006 11.0007,-6.6018 11.0007,-2.2006 h 11.0007 l 11.0007,4.4012 h 11.0007 l 13.2009,-2.2006 11.0007,2.2006 11.0007,-2.2006 11.0007,-2.2006 11.0007,-4.4012 h 11.0007 11.0007 l 11.0008,-2.2007 13.2008,2.2007 h 11.0007 l 11.0007,2.2006 11.0007,-4.4013 11.0007,2.2007 h 11.0008 11.0007 l 11.0007,2.2006 M 89.905792,1144.0167 v 0"
         inkscape:connector-curvature="0" />
      <rect
         id="rect2339"
         style="opacity:1;fill-rule:nonzero;stroke:none;stroke-width:0;stroke-linecap:butt;stroke-linejoin:miter;stroke-miterlimit:10"
         height="68.218887"
         width="2118.7368"
         ry="0"
         rx="0"
         y="-0.30015233"
         x="-0.30003554" />
      <rect
         id="rect2341"
         style="opacity:1;fill-rule:nonzero;stroke:none;stroke-width:0;stroke-linecap:butt;stroke-linejoin:miter;stroke-miterlimit:10"
         height="68.218887"
         width="2118.7368"
         ry="0"
         rx="0"
         y="-0.30015233"
         x="-0.30003554" />
      <g
         id="g2389"
         transform="translate(29,463)"
         style="stroke-width:0.7095086" />
    </g>
    <g
       style="opacity:0.9;fill:#ffffff;stroke-width:2.48698306"
       transform="matrix(0.10638727,0,0,0.10638727,866.67085,578.31257)"
       id="g2549">
      <path
         style="fill:#ffffff;stroke-width:2.48698306"
         inkscape:connector-curvature="0"
         d="M 500,855.4 C 303.2,855.4 143.6,696.3 143.6,500 143.6,303.7 303.1,144.6 500,144.6 c 196.8,0 356.4,159.1 356.4,355.4 0,196.3 -159.6,355.4 -356.4,355.4 z m 0,-622 C 352.4,233.4 232.7,352.8 232.7,500 232.7,647.2 352.4,766.6 500,766.6 647.6,766.6 767.3,647.2 767.3,500 767.3,352.8 647.6,233.4 500,233.4 Z M 40.6,438.9 h 306.3 c 16.9,0 30.6,13.7 30.6,30.5 v 61.1 c 0,16.9 -13.7,30.5 -30.6,30.5 H 40.6 C 23.7,561 10,547.3 10,530.5 v -61.1 c 0,-16.8 13.7,-30.5 30.6,-30.5 z m 612.5,0 h 306.2 c 16.9,0 30.6,13.7 30.6,30.5 v 61.1 c 0,16.9 -13.7,30.5 -30.6,30.5 H 653.1 c -16.9,0 -30.6,-13.7 -30.6,-30.5 v -61.1 c 0,-16.8 13.7,-30.5 30.6,-30.5 z M 469.4,11.3 h 61.2 c 16.9,0 30.6,13.7 30.6,30.5 v 305.5 c 0,16.9 -13.7,30.5 -30.6,30.5 h -61.2 c -16.9,0 -30.6,-13.7 -30.6,-30.5 V 41.8 C 438.7,25 452.5,11.3 469.4,11.3 Z m 0,610.9 h 61.2 c 16.9,0 30.6,13.7 30.6,30.6 v 305.4 c 0,16.9 -13.7,30.5 -30.6,30.5 h -61.2 c -16.9,0 -30.6,-13.7 -30.6,-30.5 V 652.7 c -0.1,-16.8 13.7,-30.5 30.6,-30.5 z"
         id="path2547" />
    </g>
    <g
       id="g2553"
       transform="matrix(0.10638727,0,0,0.10638727,1153.1768,316.75305)"
       style="opacity:0.9;fill:#f2f2f2;stroke-width:2.48698306">
      <path
         id="path2551"
         d="M 500,855.4 C 303.2,855.4 143.6,696.3 143.6,500 143.6,303.7 303.1,144.6 500,144.6 c 196.8,0 356.4,159.1 356.4,355.4 0,196.3 -159.6,355.4 -356.4,355.4 z m 0,-622 C 352.4,233.4 232.7,352.8 232.7,500 232.7,647.2 352.4,766.6 500,766.6 647.6,766.6 767.3,647.2 767.3,500 767.3,352.8 647.6,233.4 500,233.4 Z M 40.6,438.9 h 306.3 c 16.9,0 30.6,13.7 30.6,30.5 v 61.1 c 0,16.9 -13.7,30.5 -30.6,30.5 H 40.6 C 23.7,561 10,547.3 10,530.5 v -61.1 c 0,-16.8 13.7,-30.5 30.6,-30.5 z m 612.5,0 h 306.2 c 16.9,0 30.6,13.7 30.6,30.5 v 61.1 c 0,16.9 -13.7,30.5 -30.6,30.5 H 653.1 c -16.9,0 -30.6,-13.7 -30.6,-30.5 v -61.1 c 0,-16.8 13.7,-30.5 30.6,-30.5 z M 469.4,11.3 h 61.2 c 16.9,0 30.6,13.7 30.6,30.5 v 305.5 c 0,16.9 -13.7,30.5 -30.6,30.5 h -61.2 c -16.9,0 -30.6,-13.7 -30.6,-30.5 V 41.8 C 438.7,25 452.5,11.3 469.4,11.3 Z m 0,610.9 h 61.2 c 16.9,0 30.6,13.7 30.6,30.6 v 305.4 c 0,16.9 -13.7,30.5 -30.6,30.5 h -61.2 c -16.9,0 -30.6,-13.7 -30.6,-30.5 V 652.7 c -0.1,-16.8 13.7,-30.5 30.6,-30.5 z"
         inkscape:connector-curvature="0"
         style="fill:#f2f2f2;stroke-width:2.48698306" />
    </g>
  </g>
  <style
     id="style4576"
     type="text/css">
	.st0{fill:#FFFFFF;}
	.st1{fill:#A6A385;}
	.st2{fill:#499D4A;}
	.st3{fill:#58AA50;}
</style>
</svg>
