<?xml version="1.0" encoding="UTF-8" standalone="no"?>
<!-- Created with Inkscape (http://www.inkscape.org/) -->

<svg
   xmlns:dc="http://purl.org/dc/elements/1.1/"
   xmlns:cc="http://creativecommons.org/ns#"
   xmlns:rdf="http://www.w3.org/1999/02/22-rdf-syntax-ns#"
   xmlns:svg="http://www.w3.org/2000/svg"
   xmlns="http://www.w3.org/2000/svg"
   xmlns:xlink="http://www.w3.org/1999/xlink"
   xmlns:sodipodi="http://sodipodi.sourceforge.net/DTD/sodipodi-0.dtd"
   xmlns:inkscape="http://www.inkscape.org/namespaces/inkscape"
   width="297mm"
   height="210mm"
   viewBox="0 0 297 210"
   version="1.1"
   id="svg8"
   inkscape:version="0.92.2 5c3e80d, 2017-08-06"
   sodipodi:docname="bg-mongodb.svg"
   inkscape:export-filename="/home/holger/coding/CryptoCrawler/assets/bg-twitterlistener.png"
   inkscape:export-xdpi="30.479996"
   inkscape:export-ydpi="30.479996">
  <defs
     id="defs2">
    <linearGradient
       inkscape:collect="always"
       id="linearGradient4656">
      <stop
         style="stop-color:#00a91f;stop-opacity:1;"
         offset="0"
         id="stop4652" />
      <stop
         style="stop-color:#00a91f;stop-opacity:0;"
         offset="1"
         id="stop4654" />
    </linearGradient>
    <linearGradient
       inkscape:collect="always"
       xlink:href="#linearGradient4656"
       id="linearGradient4658"
       x1="319.0119"
       y1="552.5119"
       x2="746.21649"
       y2="316.24341"
       gradientUnits="userSpaceOnUse" />
  </defs>
  <sodipodi:namedview
     id="base"
     pagecolor="#ffffff"
     bordercolor="#666666"
     borderopacity="1.0"
     inkscape:pageopacity="0.0"
     inkscape:pageshadow="2"
     inkscape:zoom="0.12374369"
     inkscape:cx="421.50583"
     inkscape:cy="537.20638"
     inkscape:document-units="mm"
     inkscape:current-layer="layer1"
     showgrid="false"
     inkscape:window-width="1920"
     inkscape:window-height="1028"
     inkscape:window-x="1920"
     inkscape:window-y="24"
     inkscape:window-maximized="1" />
  <metadata
     id="metadata5">
    <rdf:RDF>
      <cc:Work
         rdf:about="">
        <dc:format>image/svg+xml</dc:format>
        <dc:type
           rdf:resource="http://purl.org/dc/dcmitype/StillImage" />
        <dc:title></dc:title>
      </cc:Work>
    </rdf:RDF>
  </metadata>
  <g
     inkscape:label="Layer 1"
     inkscape:groupmode="layer"
     id="layer1"
     transform="translate(0,-87)">
    <rect
       style="fill:#00a91f;fill-opacity:1;stroke:#b3b3b3;stroke-width:1.46499979;stroke-linejoin:round;stroke-miterlimit:4;stroke-dasharray:none;stroke-opacity:1"
       id="rect4504"
       width="1598.5349"
       height="898.53503"
       x="-436.17712"
       y="-289.70779" />
    <g
       id="g4604"
       transform="matrix(2.1584542,0,0,2.1584542,-403.83867,-164.50393)"
       style="stroke-width:0.12258001">
      <g
         id="g4612"
         transform="translate(484.28544,58.498486)"
         style="opacity:0.8">
        <path
           style="fill:#ffffff;stroke-width:0.12258001"
           inkscape:connector-curvature="0"
           class="st0"
           d="m 181.1,220.3 -3.8,-1.3 c 0,0 0.5,-19.3 -6.5,-20.7 -4.6,-5.4 0.7,-227 17.4,-0.7 0,0 -5.7,2.9 -6.7,7.8 -1.2,4.8 -0.4,14.9 -0.4,14.9 z"
           id="path4578" />
        <path
           style="fill:#a6a385;stroke-width:0.12258001"
           inkscape:connector-curvature="0"
           class="st1"
           d="m 181.1,220.3 -3.8,-1.3 c 0,0 0.5,-19.3 -6.5,-20.7 -4.6,-5.4 0.7,-227 17.4,-0.7 0,0 -5.7,2.9 -6.7,7.8 -1.2,4.8 -0.4,14.9 -0.4,14.9 z"
           id="path4580" />
        <path
           style="fill:#ffffff;stroke-width:0.12258001"
           inkscape:connector-curvature="0"
           class="st0"
           d="m 183.1,201.7 c 0,0 33.1,-21.8 25.4,-67.1 -7.5,-32.9 -25.1,-43.7 -27,-47.9 -2.1,-3 -4.2,-8.1 -4.2,-8.1 l 1.4,91.6 c 0,0.1 -2.9,28.1 4.4,31.5"
           id="path4582" />
        <path
           style="fill:#ececec;stroke-width:0.12258001"
           inkscape:connector-curvature="0"
           class="st2"
           d="m 183.1,201.7 c 0,0 33.1,-21.8 25.4,-67.1 -7.5,-32.9 -25.1,-43.7 -27,-47.9 -2.1,-3 -4.2,-8.1 -4.2,-8.1 l 1.4,91.6 c 0,0.1 -2.9,28.1 4.4,31.5"
           id="path4584" />
        <path
           style="fill:#ffffff;stroke-width:0.12258001"
           inkscape:connector-curvature="0"
           class="st0"
           d="m 175.3,202.9 c 0,0 -31.1,-21.2 -29.3,-58.6 1.8,-37.4 23.7,-55.7 28,-59.1 2.8,-3 2.9,-4.1 3,-7 1.9,4.2 1.6,62.1 1.8,68.9 1,26.3 -1.3,50.8 -3.5,55.8 z"
           id="path4586" />
        <path
           style="fill:#f9f9f9;stroke-width:0.12258001"
           inkscape:connector-curvature="0"
           class="st3"
           d="m 175.3,202.9 c 0,0 -31.1,-21.2 -29.3,-58.6 1.8,-37.4 23.7,-55.7 28,-59.1 2.8,-3 2.9,-4.1 3,-7 1.9,4.2 1.6,62.1 1.8,68.9 1,26.3 -1.3,50.8 -3.5,55.8 z"
           id="path4588" />
      </g>
      <path
         style="fill:none;stroke:none;stroke-width:0.12258001px;stroke-linecap:butt;stroke-linejoin:miter;stroke-opacity:1"
         d="M 348.76105,334.1707 C 422.51959,248.2053 482.01127,213.50161 593.92107,196.18063"
         id="path4634"
         inkscape:connector-curvature="0"
         sodipodi:nodetypes="cc" />
      <text
         xml:space="preserve"
         style="font-style:normal;font-weight:normal;font-size:4.90320063px;line-height:1.25;font-family:sans-serif;letter-spacing:0px;word-spacing:0px;opacity:0.85;fill:#000000;fill-opacity:1;stroke:none;stroke-width:0.12258001"
         id="text4640"
         transform="rotate(2.6020761,183.89146,1080.5669)"><textPath
           xlink:href="#path4634"
           id="textPath4642"><tspan
   style="stroke-width:0.12258001"
   id="tspan4638"><tspan
     id="tspan4636"
     style="font-style:normal;font-variant:normal;font-weight:bold;font-stretch:normal;font-size:23.53536224px;font-family:'Courier New';-inkscape-font-specification:'Courier New Bold';fill:#ffffff;stroke-width:0.12258001"
     y="148.17366"
     x="91.693359">001111011010011110011001110</tspan></tspan></textPath></text>
    </g>
    <rect
       y="281.17993"
       x="213.34714"
       height="319.0947"
       width="568.41888"
       id="rect4650"
       style="fill:url(#linearGradient4658);fill-opacity:1;stroke:none;stroke-width:1.46499979;stroke-linejoin:round;stroke-miterlimit:4;stroke-dasharray:none;stroke-opacity:1" />
  </g>
  <style
     id="style4576"
     type="text/css">
	.st0{fill:#FFFFFF;}
	.st1{fill:#A6A385;}
	.st2{fill:#499D4A;}
	.st3{fill:#58AA50;}
</style>
</svg>
