<?xml version="1.0" encoding="UTF-8" standalone="no"?>
<!-- Created with Inkscape (http://www.inkscape.org/) -->

<svg
   xmlns:dc="http://purl.org/dc/elements/1.1/"
   xmlns:cc="http://creativecommons.org/ns#"
   xmlns:rdf="http://www.w3.org/1999/02/22-rdf-syntax-ns#"
   xmlns:svg="http://www.w3.org/2000/svg"
   xmlns="http://www.w3.org/2000/svg"
   xmlns:sodipodi="http://sodipodi.sourceforge.net/DTD/sodipodi-0.dtd"
   xmlns:inkscape="http://www.inkscape.org/namespaces/inkscape"
   width="297mm"
   height="210mm"
   viewBox="0 0 297 210"
   version="1.1"
   id="svg8"
   inkscape:version="0.92.2 5c3e80d, 2017-08-06"
   sodipodi:docname="bg-mongodb.svg"
   inkscape:export-filename="/home/holger/coding/CryptoCrawler/assets/bg-mongodb.png"
   inkscape:export-xdpi="30.48"
   inkscape:export-ydpi="30.48">
  <defs
     id="defs2" />
  <sodipodi:namedview
     id="base"
     pagecolor="#ffffff"
     bordercolor="#666666"
     borderopacity="1.0"
     inkscape:pageopacity="0.0"
     inkscape:pageshadow="2"
     inkscape:zoom="0.12374369"
     inkscape:cx="976.30908"
     inkscape:cy="657.65794"
     inkscape:document-units="mm"
     inkscape:current-layer="layer1"
     showgrid="false"
     inkscape:window-width="1920"
     inkscape:window-height="1028"
     inkscape:window-x="1920"
     inkscape:window-y="24"
     inkscape:window-maximized="1" />
  <metadata
     id="metadata5">
    <rdf:RDF>
      <cc:Work
         rdf:about="">
        <dc:format>image/svg+xml</dc:format>
        <dc:type
           rdf:resource="http://purl.org/dc/dcmitype/StillImage" />
        <dc:title />
      </cc:Work>
    </rdf:RDF>
  </metadata>
  <g
     inkscape:label="Layer 1"
     inkscape:groupmode="layer"
     id="layer1"
     transform="translate(0,-87)">
    <rect
       style="fill:#00a91f;fill-opacity:1;stroke:#b3b3b3;stroke-width:1.46499979;stroke-linejoin:round;stroke-miterlimit:4;stroke-dasharray:none;stroke-opacity:1"
       id="rect4504"
       width="1598.5349"
       height="898.53503"
       x="-436.17712"
       y="-289.70779" />
    <path
       sodipodi:nodetypes="cc"
       inkscape:connector-curvature="0"
       id="path4634"
       d="M 348.94608,556.78822 C 508.15051,371.23584 636.56058,296.32952 878.11276,258.94297"
       style="fill:none;stroke:none;stroke-width:0.26458332px;stroke-linecap:butt;stroke-linejoin:miter;stroke-opacity:1" />
    <path
       id="path858"
       d="m 868.09476,304.02398 q 0,-2.0349 -1.48704,-3.52194 -1.48706,-1.48706 -3.52197,-1.48706 -2.0349,0 -3.52194,1.48706 -1.48706,1.48704 -1.48706,3.52194 0,2.03491 1.48706,3.52195 1.48704,1.48705 3.52194,1.48705 2.03491,0 3.52197,-1.48705 1.48704,-1.48704 1.48704,-3.52195 z m 90.16201,-45.08101 q 0,-3.99154 -3.05235,-7.00477 -3.05237,-3.01322 -6.96565,-3.01322 h -27.5495 q 0,-4.53941 3.75675,-12.48338 3.75674,-7.94395 3.75674,-12.56163 0,-7.67003 -2.5045,-11.34852 -2.50449,-3.67848 -10.018,-3.67848 -2.0349,2.03491 -2.97409,6.65258 -0.93919,4.61767 -2.3871,9.82234 -1.44792,5.20466 -4.65681,8.57008 -1.72185,1.80012 -6.02645,7.12218 -0.31307,0.39132 -1.80011,2.34796 -1.48705,1.95664 -2.46537,3.20889 -0.97832,1.25225 -2.70017,3.3263 -1.72183,2.07403 -3.13062,3.44368 -1.40878,1.36966 -3.01323,2.77843 -1.60443,1.40878 -3.13062,2.11317 -1.52618,0.70439 -2.77843,0.70439 h -2.5045 v 50.09001 h 2.5045 q 1.01745,0 2.46536,0.2348 1.44792,0.2348 2.58277,0.50873 1.13485,0.27393 2.97409,0.86091 1.83925,0.587 2.73931,0.90006 0.90005,0.31307 2.77843,0.97832 1.87836,0.66526 2.2697,0.82179 16.51405,5.7134 26.76685,5.7134 h 9.47014 q 15.027,0 15.027,-13.07036 0,-2.03491 -0.39133,-4.38288 2.34797,-1.25226 3.71762,-4.10895 1.36965,-2.8567 1.36965,-5.75252 0,-2.89583 -1.40878,-5.40033 4.14807,-3.91328 4.14807,-9.31361 0,-1.95664 -0.78265,-4.34375 -0.78266,-2.3871 -1.95664,-3.71762 2.5045,-0.0782 4.18721,-3.67848 1.68271,-3.60022 1.68271,-6.33952 z m 10.01801,-0.0782 q 0,6.96564 -3.83502,12.75729 0.70439,2.58277 0.70439,5.40034 0,6.02645 -2.9741,11.27025 0.23481,1.64357 0.23481,3.36542 0,7.90483 -4.69595,13.93128 0.0782,10.87893 -6.65258,17.17931 -6.73084,6.30038 -17.7663,6.30038 h -10.09626 q -7.51351,0 -14.83134,-1.76097 -7.31784,-1.76098 -16.94452,-5.12641 -9.0788,-3.13062 -10.80065,-3.13062 h -22.54051 q -4.14808,0 -7.08304,-2.93496 -2.93496,-2.93496 -2.93496,-7.08305 v -50.09 q 0,-4.14807 2.93496,-7.08304 2.93496,-2.93496 7.08304,-2.93496 h 21.44479 q 2.81757,-1.87837 10.72239,-12.13118 4.53942,-5.86991 8.37442,-10.018 1.87838,-1.95664 2.77844,-6.6917 0.90005,-4.73507 2.3871,-9.90061 1.48704,-5.16553 4.85247,-8.45269 3.05235,-2.89582 7.0439,-2.89582 6.57431,0 11.81811,2.54363 5.2438,2.54363 7.98309,7.94396 2.73931,5.40033 2.73931,14.55741 0,7.2787 -3.75675,15.027 h 13.77475 q 8.13962,0 14.08781,5.94819 5.9482,5.94819 5.9482,14.00955 z"
       inkscape:connector-curvature="0"
       style="fill:#ffffff;stroke-width:0.26458332;opacity:0.95" />
    <path
       style="fill:#ffffff;stroke-width:0.26458332;opacity:0.3"
       inkscape:connector-curvature="0"
       d="m 688.48964,453.69494 q 0,-1.16628 -0.85228,-2.01855 -0.85229,-0.85229 -2.01857,-0.85229 -1.16628,0 -2.01856,0.85229 -0.85229,0.85227 -0.85229,2.01855 0,1.16628 0.85229,2.01856 0.85228,0.85228 2.01856,0.85228 1.16628,0 2.01857,-0.85228 0.85228,-0.85228 0.85228,-2.01856 z m 51.6752,-25.83761 q 0,-2.2877 -1.74941,-4.01469 -1.74943,-1.72699 -3.99228,-1.72699 h -15.78964 q 0,-2.6017 2.15313,-7.15469 2.15313,-4.55297 2.15313,-7.19954 0,-4.39598 -1.43542,-6.50426 -1.43542,-2.10827 -5.74169,-2.10827 -1.16628,1.16628 -1.70456,3.81284 -0.53829,2.64656 -1.36814,5.62955 -0.82985,2.98299 -2.66899,4.91183 -0.98685,1.03172 -3.45398,4.08199 -0.17943,0.22428 -1.03171,1.3457 -0.85228,1.12143 -1.413,1.83914 -0.56071,0.71771 -1.54756,1.90642 -0.98685,1.18871 -1.79428,1.9737 -0.80742,0.78501 -1.72699,1.59243 -0.91956,0.80742 -1.79428,1.21113 -0.87471,0.40371 -1.59242,0.40371 h -1.43542 v 28.70845 h 1.43542 q 0.58314,0 1.41299,0.13458 0.82986,0.13457 1.48028,0.29157 0.65043,0.157 1.70456,0.49342 1.05415,0.33643 1.57,0.51586 0.51586,0.17943 1.59243,0.56071 1.07655,0.38128 1.30084,0.471 9.46482,3.27456 15.34108,3.27456 h 5.42769 q 8.61254,0 8.61254,-7.49111 0,-1.16628 -0.22429,-2.51199 1.34571,-0.71772 2.13071,-2.355 0.78499,-1.63728 0.78499,-3.29698 0,-1.65971 -0.80742,-3.09513 2.37741,-2.24285 2.37741,-5.33798 0,-1.12142 -0.44856,-2.48956 -0.44857,-1.36814 -1.12143,-2.13071 1.43543,-0.0448 2.39985,-2.10827 0.96442,-2.06342 0.96442,-3.63342 z m 5.7417,-0.0448 q 0,3.99226 -2.19799,7.31167 0.40371,1.48028 0.40371,3.09514 0,3.45398 -1.70457,6.4594 0.13458,0.94199 0.13458,1.92885 0,4.53055 -2.69143,7.98453 0.0448,6.23512 -3.81284,9.8461 -3.85769,3.61099 -10.18252,3.61099 h -5.78655 q -4.30627,0 -8.50039,-1.00928 -4.19413,-1.00928 -9.71154,-2.93814 -5.20339,-1.79427 -6.19025,-1.79427 h -12.91881 q -2.37741,0 -4.05955,-1.68214 -1.68213,-1.68213 -1.68213,-4.05956 v -28.70844 q 0,-2.37741 1.68213,-4.05955 1.68214,-1.68214 4.05955,-1.68214 h 12.29081 q 1.61486,-1.07656 6.1454,-6.95283 2.60171,-3.36426 4.79969,-5.74169 1.07657,-1.12142 1.59243,-3.83526 0.51585,-2.71385 1.36814,-5.67441 0.85228,-2.96056 2.78113,-4.84455 1.74941,-1.6597 4.03712,-1.6597 3.76798,0 6.7734,1.45785 3.00542,1.45784 4.57541,4.55297 1.57,3.09513 1.57,8.3434 0,4.17169 -2.15314,8.61253 h 7.89482 q 4.66512,0 8.07425,3.40913 3.40914,3.40913 3.40914,8.0294 z"
       id="path869" />
    <path
       id="path871"
       d="m 852.96322,507.88896 q 0,-1.80104 -1.31615,-3.11717 -1.31616,-1.31616 -3.11721,-1.31616 -1.80104,0 -3.11719,1.31616 -1.31616,1.31613 -1.31616,3.11717 0,1.80105 1.31616,3.11719 1.31615,1.31615 3.11719,1.31615 1.80105,0 3.11721,-1.31615 1.31615,-1.31614 1.31615,-3.11719 z m 79.80017,-39.9001 q 0,-3.53281 -2.70155,-6.19974 -2.70158,-2.66693 -6.16513,-2.66693 h -24.38339 q 0,-4.01772 3.32501,-11.04874 3.325,-7.03099 3.325,-11.11799 0,-6.78856 -2.21667,-10.0443 -2.21667,-3.25572 -8.86669,-3.25572 -1.80104,1.80104 -2.63229,5.88803 -0.83126,4.08699 -2.11277,8.69351 -1.28151,4.60653 -4.12163,7.58517 -1.52395,1.59325 -5.33385,6.30367 -0.27709,0.34635 -1.59324,2.07812 -1.31614,1.73178 -2.18204,2.84012 -0.86589,1.10833 -2.38984,2.94401 -1.52396,1.83568 -2.77085,3.04792 -1.24687,1.21226 -2.66693,2.45913 -1.42004,1.24687 -2.77084,1.8703 -1.35078,0.62344 -2.45912,0.62344 h -2.21667 v 44.33344 h 2.21667 q 0.90053,0 2.18203,0.20783 1.28153,0.20781 2.28595,0.45026 1.00443,0.24245 2.63229,0.76197 1.62788,0.51954 2.42449,0.79662 0.79663,0.27709 2.45914,0.86589 1.66247,0.5888 2.00884,0.72735 14.61618,5.05678 23.69068,5.05678 h 8.38179 q 13.30004,0 13.30004,-11.56825 0,-1.80105 -0.34636,-3.87918 2.07813,-1.10835 3.29038,-3.63674 1.21223,-2.52839 1.21223,-5.09141 0,-2.56303 -1.24687,-4.7797 3.67135,-3.46355 3.67135,-8.24325 0,-1.73177 -0.69269,-3.84454 -0.69272,-2.11277 -1.73179,-3.29038 2.21668,-0.0692 3.706,-3.25573 1.48932,-3.18646 1.48932,-5.61096 z m 8.86671,-0.0692 q 0,6.1651 -3.39428,11.29115 0.62343,2.28594 0.62343,4.77971 0,5.33386 -2.6323,9.97503 0.20782,1.45468 0.20782,2.97865 0,6.99637 -4.15628,12.33023 0.0692,9.62867 -5.88803,15.20498 -5.95729,5.57632 -15.7245,5.57632 h -8.93597 q -6.65002,0 -13.12685,-1.55859 -6.47684,-1.5586 -14.99718,-4.53727 -8.03541,-2.77082 -9.55939,-2.77082 h -19.95006 q -3.67135,0 -6.26902,-2.59767 -2.59765,-2.59766 -2.59765,-6.26904 v -44.33342 q 0,-3.67135 2.59765,-6.26902 2.59767,-2.59767 6.26902,-2.59767 h 18.98026 q 2.49378,-1.66249 9.49013,-10.73701 4.01773,-5.19531 7.41199,-8.86669 1.66251,-1.73177 2.45913,-5.92265 0.79661,-4.19091 2.11277,-8.76279 1.31615,-4.57189 4.2948,-7.48127 2.70155,-2.56302 6.23438,-2.56302 5.81876,0 10.45992,2.25131 4.64117,2.25129 7.06565,7.03099 2.42449,4.7797 2.42449,12.88442 0,6.44219 -3.32501,13.30002 h 12.19169 q 7.20417,0 12.46877,5.2646 5.26462,5.2646 5.26462,12.39952 z"
       inkscape:connector-curvature="0"
       style="fill:#ffffff;stroke-width:0.26458332;opacity:0.6" />
    <path
       style="fill:#ffffff;stroke-width:0.26458332;opacity:0.8"
       inkscape:connector-curvature="0"
       d="m 705.43046,512.32556 q 0,1.14957 -0.84008,1.98964 -0.84008,0.84008 -1.98966,0.84008 -1.14957,0 -1.98965,-0.84008 -0.84008,-0.84007 -0.84008,-1.98964 0,-1.14958 0.84008,-1.98965 0.84008,-0.84007 1.98965,-0.84007 1.14958,0 1.98966,0.84007 0.84008,0.84007 0.84008,1.98965 z m 50.93507,25.46754 q 0,2.25493 -1.72436,3.95719 -1.72437,1.70225 -3.93509,1.70225 h -15.5635 q 0,2.56444 2.1223,7.05222 2.12229,4.48776 2.12229,7.09642 0,4.33302 -1.41487,6.41111 -1.41486,2.07807 -5.65945,2.07807 -1.14957,-1.14958 -1.68015,-3.75823 -0.53057,-2.60866 -1.34854,-5.54892 -0.81797,-2.94027 -2.63077,-4.84148 -0.97271,-1.01695 -3.4045,-4.02353 -0.17686,-0.22106 -1.01694,-1.32642 -0.84007,-1.10537 -1.39276,-1.8128 -0.55268,-0.70743 -1.52539,-1.87911 -0.97272,-1.17169 -1.76859,-1.94544 -0.79585,-0.77376 -1.70225,-1.56962 -0.90639,-0.79585 -1.76858,-1.19378 -0.86218,-0.39793 -1.56961,-0.39793 h -1.41487 v -28.29726 h 1.41487 q 0.57479,0 1.39275,-0.13266 0.81798,-0.13264 1.45908,-0.28739 0.64111,-0.15475 1.68015,-0.48635 1.03904,-0.33162 1.54751,-0.50847 0.50847,-0.17686 1.56962,-0.55268 1.06113,-0.37583 1.28221,-0.46426 9.32926,-3.22765 15.12135,-3.22765 h 5.34995 q 8.48919,0 8.48919,7.38381 0,1.14958 -0.22108,2.47601 1.32644,0.70744 2.1002,2.32127 0.77374,1.61383 0.77374,3.24976 0,1.63594 -0.79585,3.0508 2.34336,2.21072 2.34336,5.26152 0,1.10536 -0.44214,2.4539 -0.44215,1.34855 -1.10537,2.10019 1.41487,0.0442 2.36548,2.07808 0.95061,2.03386 0.95061,3.58138 z m 5.65946,0.0442 q 0,-3.93508 -2.16651,-7.20695 0.39793,-1.45907 0.39793,-3.0508 0,-3.40451 -1.68015,-6.36689 0.13264,-0.92849 0.13264,-1.90122 0,-4.46566 -2.65288,-7.87017 0.0442,-6.14581 -3.75823,-9.70508 -3.80243,-3.55927 -10.03667,-3.55927 h -5.70368 q -4.24459,0 -8.37864,0.99483 -4.13405,0.99482 -9.57244,2.89606 -5.12886,1.76856 -6.10159,1.76856 h -12.73378 q -2.34336,0 -4.00141,1.65805 -1.65804,1.65804 -1.65804,4.00142 v 28.29725 q 0,2.34336 1.65804,4.00141 1.65805,1.65805 4.00141,1.65805 h 12.11477 q 1.59174,1.06114 6.05739,6.85324 2.56444,3.31608 4.73094,5.65946 1.06115,1.10536 1.56962,3.78033 0.50846,2.67498 1.34855,5.59313 0.84007,2.91816 2.74129,4.77517 1.72436,1.63593 3.9793,1.63593 3.71401,0 6.67639,-1.43697 2.96237,-1.43696 4.50988,-4.48776 1.54751,-3.0508 1.54751,-8.2239 0,-4.11194 -2.1223,-8.48918 h 7.78175 q 4.59829,0 7.9586,-3.3603 3.36031,-3.3603 3.36031,-7.9144 z"
       id="path873" />
    <path
       id="path875"
       d="m 987.66706,384.03618 q 0,1.14958 -0.84008,1.98964 -0.84008,0.84008 -1.98966,0.84008 -1.14957,0 -1.98965,-0.84008 -0.84008,-0.84006 -0.84008,-1.98964 0,-1.14958 0.84008,-1.98965 0.84008,-0.84007 1.98965,-0.84007 1.14958,0 1.98966,0.84007 0.84008,0.84007 0.84008,1.98965 z m 50.93504,25.46755 q 0,2.25493 -1.7244,3.95719 -1.7243,1.70225 -3.935,1.70225 h -15.5635 q 0,2.56444 2.1222,7.05222 2.1223,4.48776 2.1223,7.09643 0,4.33302 -1.4148,6.4111 -1.4149,2.07807 -5.6595,2.07807 -1.1496,-1.14957 -1.6801,-3.75823 -0.5306,-2.60865 -1.3486,-5.54892 -0.8179,-2.94027 -2.6307,-4.84148 -0.9727,-1.01694 -3.4045,-4.02352 -0.1769,-0.22107 -1.017,-1.32643 -0.8401,-1.10537 -1.3928,-1.8128 -0.5526,-0.70743 -1.5253,-1.87911 -0.9728,-1.17169 -1.76857,-1.94544 -0.7958,-0.77376 -1.7023,-1.56962 -0.9063,-0.79585 -1.7685,-1.19378 -0.8622,-0.39793 -1.5697,-0.39793 h -1.41481 v -28.29727 h 1.41481 q 0.5748,0 1.3928,-0.13266 0.818,-0.13264 1.4591,-0.28739 0.6411,-0.15475 1.6801,-0.48635 1.03907,-0.33162 1.54747,-0.50847 0.5085,-0.17686 1.5696,-0.55268 1.0612,-0.37582 1.2823,-0.46426 9.3292,-3.22765 15.1213,-3.22765 h 5.35 q 8.4892,0 8.4892,7.38381 0,1.14958 -0.2211,2.47601 1.3264,0.70745 2.1002,2.32127 0.7737,1.61383 0.7737,3.24976 0,1.63594 -0.7958,3.0508 2.3433,2.21073 2.3433,5.26153 0,1.10536 -0.4421,2.4539 -0.4422,1.34855 -1.1054,2.10019 1.4149,0.0442 2.3655,2.07808 0.9506,2.03386 0.9506,3.58138 z m 5.6595,0.0442 q 0,-3.93508 -2.1665,-7.20695 0.3979,-1.45907 0.3979,-3.0508 0,-3.40452 -1.6802,-6.36689 0.1327,-0.9285 0.1327,-1.90123 0,-4.46566 -2.6529,-7.87017 0.044,-6.14581 -3.7583,-9.70508 -3.8024,-3.55927 -10.0366,-3.55927 h -5.7037 q -4.2446,0 -8.3786,0.99483 -4.1341,0.99482 -9.5725,2.89606 -5.12877,1.76856 -6.10157,1.76856 h -12.73374 q -2.34336,0 -4.00141,1.65805 -1.65803,1.65804 -1.65803,4.00142 v 28.29726 q 0,2.34336 1.65803,4.00141 1.65805,1.65805 4.00141,1.65805 h 12.11474 q 1.5918,1.06114 6.05737,6.85325 2.5645,3.31607 4.731,5.65945 1.0611,1.10536 1.5696,3.78033 0.5084,2.67498 1.3486,5.59314 0.84,2.91815 2.7412,4.77516 1.7244,1.63593 3.9793,1.63593 3.714,0 6.6764,-1.43697 2.9624,-1.43696 4.5099,-4.48776 1.5475,-3.0508 1.5475,-8.2239 0,-4.11194 -2.1223,-8.48918 h 7.7818 q 4.5983,0 7.9586,-3.3603 3.3603,-3.3603 3.3603,-7.9144 z"
       inkscape:connector-curvature="0"
       style="fill:#ffffff;stroke-width:0.26458332" />
    <path
       id="path877"
       d="m 795.23302,366.93094 q 0,1.14957 -0.84008,1.98964 -0.84008,0.84008 -1.98966,0.84008 -1.14957,0 -1.98965,-0.84008 -0.84008,-0.84007 -0.84008,-1.98964 0,-1.14958 0.84008,-1.98965 0.84008,-0.84007 1.98965,-0.84007 1.14958,0 1.98966,0.84007 0.84008,0.84007 0.84008,1.98965 z m 50.93507,25.46754 q 0,2.25493 -1.72436,3.95719 -1.72437,1.70225 -3.93509,1.70225 h -15.5635 q 0,2.56444 2.1223,7.05222 2.12229,4.48776 2.12229,7.09642 0,4.33302 -1.41487,6.41111 -1.41486,2.07807 -5.65945,2.07807 -1.14957,-1.14958 -1.68015,-3.75823 -0.53057,-2.60866 -1.34854,-5.54892 -0.81797,-2.94027 -2.63077,-4.84148 -0.97271,-1.01695 -3.4045,-4.02353 -0.17686,-0.22106 -1.01694,-1.32642 -0.84007,-1.10537 -1.39276,-1.8128 -0.55268,-0.70743 -1.52539,-1.87911 -0.97272,-1.17169 -1.76859,-1.94544 -0.79585,-0.77376 -1.70225,-1.56962 -0.90639,-0.79585 -1.76858,-1.19378 -0.86218,-0.39793 -1.56961,-0.39793 h -1.41487 v -28.29726 h 1.41487 q 0.57479,0 1.39275,-0.13266 0.81798,-0.13264 1.45908,-0.28739 0.64111,-0.15475 1.68015,-0.48635 1.03904,-0.33162 1.54751,-0.50847 0.50847,-0.17686 1.56962,-0.55268 1.06113,-0.37583 1.28221,-0.46426 9.32926,-3.22765 15.12135,-3.22765 h 5.34995 q 8.48919,0 8.48919,7.38381 0,1.14958 -0.22108,2.47601 1.32644,0.70744 2.1002,2.32127 0.77374,1.61383 0.77374,3.24976 0,1.63594 -0.79585,3.0508 2.34336,2.21072 2.34336,5.26152 0,1.10536 -0.44214,2.4539 -0.44215,1.34855 -1.10537,2.10019 1.41487,0.0442 2.36548,2.07808 0.95061,2.03386 0.95061,3.58138 z m 5.65946,0.0442 q 0,-3.93508 -2.16651,-7.20695 0.39793,-1.45907 0.39793,-3.0508 0,-3.40451 -1.68015,-6.36689 0.13264,-0.92849 0.13264,-1.90122 0,-4.46566 -2.65288,-7.87017 0.0442,-6.14581 -3.75823,-9.70508 -3.80243,-3.55927 -10.03667,-3.55927 H 826.36 q -4.24459,0 -8.37864,0.99483 -4.13405,0.99482 -9.57244,2.89606 -5.12886,1.76856 -6.10159,1.76856 h -12.73378 q -2.34336,0 -4.00141,1.65805 -1.65804,1.65804 -1.65804,4.00142 v 28.29725 q 0,2.34336 1.65804,4.00141 1.65805,1.65805 4.00141,1.65805 h 12.11477 q 1.59174,1.06114 6.05739,6.85324 2.56444,3.31608 4.73094,5.65946 1.06115,1.10536 1.56962,3.78033 0.50846,2.67498 1.34855,5.59313 0.84007,2.91816 2.74129,4.77517 1.72436,1.63593 3.9793,1.63593 3.71401,0 6.67639,-1.43697 2.96237,-1.43696 4.50988,-4.48776 1.54751,-3.0508 1.54751,-8.2239 0,-4.11194 -2.1223,-8.48918 h 7.78175 q 4.59829,0 7.9586,-3.3603 3.36031,-3.3603 3.36031,-7.9144 z"
       inkscape:connector-curvature="0"
       style="fill:#ffffff;stroke-width:0.26458332;opacity:0.5" />
    <path
       id="path879"
       d="m 1043.7799,286.11697 q 0,-1.85394 -1.3546,-3.20872 -1.3549,-1.35482 -3.2088,-1.35482 -1.854,0 -3.2089,1.35482 -1.3548,1.35478 -1.3548,3.20872 0,1.85395 1.3548,3.20875 1.3549,1.3548 3.2089,1.3548 1.8539,0 3.2088,-1.3548 1.3546,-1.3548 1.3546,-3.20875 z m 82.144,-41.07199 q 0,-3.63657 -2.7809,-6.38183 -2.7809,-2.74526 -6.3462,-2.74526 h -25.0995 q 0,-4.13572 3.4226,-11.37324 3.4228,-7.2375 3.4228,-11.44454 0,-6.98794 -2.2819,-10.33931 -2.2818,-3.35134 -9.127,-3.35134 -1.854,1.85394 -2.7097,6.06096 -0.8556,4.20703 -2.1747,8.94885 -1.3192,4.74182 -4.2427,7.80795 -1.5688,1.64004 -5.4906,6.48881 -0.2851,0.35652 -1.64,2.13915 -1.3548,1.78265 -2.2461,2.92354 -0.8913,1.14089 -2.4601,3.03048 -1.5686,1.8896 -2.8523,3.13744 -1.2834,1.24787 -2.7452,2.53136 -1.4617,1.28349 -2.8521,1.92523 -1.3905,0.64175 -2.5315,0.64175 h -2.2817 v 45.63554 h 2.2817 q 0.9271,0 2.2461,0.21393 1.3193,0.21392 2.3532,0.46349 1.0338,0.24957 2.7096,0.78435 1.6756,0.53479 2.4957,0.82002 0.8199,0.28523 2.5313,0.89132 1.7114,0.60609 2.0678,0.74871 15.0456,5.2053 24.3865,5.2053 h 8.628 q 13.6908,0 13.6908,-11.90802 0,-1.85394 -0.3566,-3.99311 2.1392,-1.1409 3.387,-3.74355 1.2479,-2.60266 1.2479,-5.24095 0,-2.63831 -1.2836,-4.92008 3.7793,-3.56528 3.7793,-8.48537 0,-1.78263 -0.7131,-3.95745 -0.7131,-2.17482 -1.7826,-3.38702 2.2817,-0.0712 3.8148,-3.35135 1.533,-3.28006 1.533,-5.77576 z m 9.1271,-0.0712 q 0,6.34618 -3.494,11.62279 0.6419,2.35308 0.6419,4.92009 0,5.49052 -2.7096,10.268 0.2139,1.4974 0.2139,3.06614 0,7.20185 -4.2784,12.69237 0.072,9.91147 -6.061,15.65156 -6.1322,5.74011 -16.1863,5.74011 h -9.1985 q -6.8452,0 -13.5124,-1.60438 -6.667,-1.60437 -15.4376,-4.67052 -8.2714,-2.85221 -9.8402,-2.85221 h -20.536 q -3.7792,0 -6.4531,-2.67397 -2.6739,-2.67394 -2.6739,-6.45316 v -45.63552 q 0,-3.77918 2.6739,-6.45314 2.6739,-2.67397 6.4531,-2.67397 h 19.5377 q 2.5671,-1.71132 9.7689,-11.05236 4.1358,-5.3479 7.6297,-9.12711 1.7114,-1.78263 2.5314,-6.09661 0.82,-4.31399 2.1748,-9.02015 1.3548,-4.70617 4.4209,-7.701 2.7809,-2.63829 6.4176,-2.63829 5.9895,0 10.7672,2.31742 4.7774,2.31742 7.2731,7.2375 2.4957,4.92008 2.4957,13.26284 0,6.6314 -3.4228,13.69065 h 12.5498 q 7.4159,0 12.835,5.41923 5.4192,5.41922 5.4192,12.76369 z"
       inkscape:connector-curvature="0"
       style="fill:#ffffff;stroke-width:0.26458332;opacity:0.8" />
  </g>
  <style
     id="style4576"
     type="text/css">
	.st0{fill:#FFFFFF;}
	.st1{fill:#A6A385;}
	.st2{fill:#499D4A;}
	.st3{fill:#58AA50;}
</style>
</svg>
