<?xml version="1.0" encoding="UTF-8" standalone="no"?>
<!-- Created with Inkscape (http://www.inkscape.org/) -->

<svg
   xmlns:dc="http://purl.org/dc/elements/1.1/"
   xmlns:cc="http://creativecommons.org/ns#"
   xmlns:rdf="http://www.w3.org/1999/02/22-rdf-syntax-ns#"
   xmlns:svg="http://www.w3.org/2000/svg"
   xmlns="http://www.w3.org/2000/svg"
   xmlns:sodipodi="http://sodipodi.sourceforge.net/DTD/sodipodi-0.dtd"
   xmlns:inkscape="http://www.inkscape.org/namespaces/inkscape"
   width="297mm"
   height="210mm"
   viewBox="0 0 297 210"
   version="1.1"
   id="svg8"
   inkscape:version="0.92.2 5c3e80d, 2017-08-06"
   sodipodi:docname="bg-pricecrawler.svg"
   inkscape:export-filename="/home/holger/coding/CryptoCrawler/assets/bg-twitterlistener.png"
   inkscape:export-xdpi="30.479996"
   inkscape:export-ydpi="30.479996">
  <defs
     id="defs2" />
  <sodipodi:namedview
     id="base"
     pagecolor="#ffffff"
     bordercolor="#666666"
     borderopacity="1.0"
     inkscape:pageopacity="0.0"
     inkscape:pageshadow="2"
     inkscape:zoom="0.12374369"
     inkscape:cx="1161.4009"
     inkscape:cy="-239.83927"
     inkscape:document-units="mm"
     inkscape:current-layer="layer1"
     showgrid="false"
     inkscape:window-width="1920"
     inkscape:window-height="1052"
     inkscape:window-x="1920"
     inkscape:window-y="0"
     inkscape:window-maximized="1" />
  <metadata
     id="metadata5">
    <rdf:RDF>
      <cc:Work
         rdf:about="">
        <dc:format>image/svg+xml</dc:format>
        <dc:type
           rdf:resource="http://purl.org/dc/dcmitype/StillImage" />
        <dc:title></dc:title>
      </cc:Work>
    </rdf:RDF>
  </metadata>
  <g
     inkscape:label="Layer 1"
     inkscape:groupmode="layer"
     id="layer1"
     transform="translate(0,-87)">
    <rect
       style="fill:#cca91f;fill-opacity:1;stroke:#b3b3b3;stroke-width:1.46499979;stroke-linejoin:round;stroke-miterlimit:4;stroke-dasharray:none;stroke-opacity:1"
       id="rect4504"
       width="1598.5349"
       height="898.53503"
       x="-436.17712"
       y="-289.70779"
       inkscape:export-filename="/home/holger/coding/CryptoCrawler/assets/bg-pricecrawler.png"
       inkscape:export-xdpi="30.48"
       inkscape:export-ydpi="30.48" />
    <path
       id="path845"
       d="m 519.36217,393.99979 c -3.54009,-1.88381 -7.86945,-2.34782 -13.17844,-1.39899 4.55064,-5.90768 4.79301,-12.50734 0.69425,-19.59686 -5.37566,-9.34774 -15.06879,-11.17791 -30.52959,-5.79798 l -7.10039,-15.67651 -9.80869,4.43098 6.91223,15.26291 c -2.42984,1.10539 -4.83618,2.26245 -7.33179,3.42903 l -6.95927,-15.36632 -9.78284,4.41923 7.10039,15.6765 c -2.0703,1.0042 -3.98082,1.81097 -5.81612,2.64589 v 0 l -13.39001,6.09142 4.72498,10.45493 0.12925,-0.0588 c 2.30294,-1.11002 5.72912,-2.69994 6.65738,-3.05981 l -0.0141,0.0376 0.28434,-0.12936 c 3.79986,-1.72864 6.00024,-0.0465 7.19707,1.62414 l 8.14696,17.97709 v 0 l 11.28442,24.94234 c 0.36232,1.20794 0.56044,3.42654 -2.0762,4.62601 0,0 0,0 0,0 l -0.33605,0.15287 0.0377,0.0141 c -0.97051,0.47273 -4.31685,1.96384 -6.64095,2.95877 l -0.1034,0.0471 3.32722,12.52595 12.57457,-5.68925 c 1.42172,-0.64677 2.8552,-1.26768 4.23696,-1.86513 0.82718,-0.3763 1.66613,-0.72674 2.46746,-1.09128 l 7.1827,15.85745 9.78284,-4.41922 -7.10038,-15.67651 c 2.3758,-1.01844 4.81743,-2.09793 7.40237,-3.27388 l 7.06511,15.59896 9.80869,-4.43098 -7.17094,-15.8316 c 8.78625,-4.62105 14.37151,-8.94026 17.62047,-13.66298 3.8668,-5.62779 4.50644,-11.97138 1.92115,-19.43742 -2.10072,-6.12652 -5.11739,-10.15162 -9.21931,-12.31023 z m -54.88857,-7.97613 c 0.51699,-0.23518 1.12561,-0.54328 1.82354,-0.86078 4.7492,-2.31652 13.62486,-6.60385 19.59524,-4.45286 2.16957,0.79136 3.82701,2.37728 4.87126,4.74133 1.01132,2.22306 1.09662,4.39938 0.29582,6.47964 -2.35779,6.06445 -11.63072,10.09573 -16.64085,12.25016 -0.54283,0.24696 -1.01989,0.43276 -1.45933,0.63267 z m 44.41915,33.86069 c -2.72646,7.10575 -14.18251,12.09898 -20.33001,14.77082 -0.64624,0.29398 -1.22666,0.52689 -1.74365,0.76208 l -9.36762,-20.72891 c 0.62038,-0.28223 1.35825,-0.64913 2.18543,-1.02543 5.86072,-2.82217 16.81843,-8.08787 23.80425,-5.55645 2.31999,0.84773 4.07617,2.51353 5.19332,4.96922 1.03483,2.27474 1.11547,4.57799 0.25832,6.80867 z"
       class="st0"
       inkscape:connector-curvature="0"
       style="fill:#ffffff;stroke-width:0.26458332"
       inkscape:export-filename="/home/holger/coding/CryptoCrawler/assets/bg-pricecrawler.png"
       inkscape:export-xdpi="30.48"
       inkscape:export-ydpi="30.48" />
    <g
       id="g1032"
       transform="matrix(0.05600217,0.03233287,-0.03233287,0.05600217,398.70708,445.4657)"
       style="stroke-width:4.09155416;opacity:0.9"
       inkscape:export-filename="/home/holger/coding/CryptoCrawler/assets/bg-pricecrawler.png"
       inkscape:export-xdpi="30.48"
       inkscape:export-ydpi="30.48">
      <circle
         id="circle856"
         r="500"
         cy="500"
         cx="500"
         style="fill:#ffffff;stroke-width:4.09155416" />
      <g
         id="g966"
         style="fill:#cca91f;fill-opacity:1;stroke-width:4.09155416">
        <circle
           id="circle858"
           r="45.32"
           cy="165.32001"
           cx="671.13"
           style="fill:#cca91f;fill-opacity:1;stroke-width:4.09155416" />
        <circle
           id="circle860"
           r="38.369999"
           cy="284.20999"
           cx="683.51001"
           style="fill:#cca91f;fill-opacity:1;stroke-width:4.09155416" />
        <circle
           id="circle862"
           r="38.279999"
           cy="298.57999"
           cx="784.12"
           style="fill:#cca91f;fill-opacity:1;stroke-width:4.09155416" />
        <circle
           id="circle864"
           r="32.740002"
           cy="399.97"
           cx="771.77002"
           style="fill:#cca91f;fill-opacity:1;stroke-width:4.09155416" />
        <circle
           id="circle866"
           r="32.950001"
           cy="430.95999"
           cx="852.28003"
           style="fill:#cca91f;fill-opacity:1;stroke-width:4.09155416" />
        <circle
           id="circle868"
           r="33.540001"
           cy="386.13"
           cx="670.57001"
           style="fill:#cca91f;fill-opacity:1;stroke-width:4.09155416" />
        <circle
           id="circle870"
           r="28.129999"
           cy="467.75"
           cx="641.32001"
           style="fill:#cca91f;fill-opacity:1;stroke-width:4.09155416" />
        <circle
           id="circle872"
           r="27.92"
           cy="481.51999"
           cx="742.02002"
           style="fill:#cca91f;fill-opacity:1;stroke-width:4.09155416" />
        <circle
           id="circle874"
           r="28.17"
           cy="512.34003"
           cx="822.40002"
           style="fill:#cca91f;fill-opacity:1;stroke-width:4.09155416" />
        <circle
           id="circle876"
           r="23.76"
           cy="574.47998"
           cx="782.53003"
           style="fill:#cca91f;fill-opacity:1;stroke-width:4.09155416" />
        <circle
           id="circle878"
           r="24.280001"
           cy="543.39001"
           cx="701.84003"
           style="fill:#cca91f;fill-opacity:1;stroke-width:4.09155416" />
        <circle
           id="circle880"
           r="24.059999"
           cy="529.44"
           cx="601.20001"
           style="fill:#cca91f;fill-opacity:1;stroke-width:4.09155416" />
        <circle
           id="circle882"
           r="20.969999"
           cy="586.87"
           cx="657"
           style="fill:#cca91f;fill-opacity:1;stroke-width:4.09155416" />
        <circle
           id="circle884"
           r="21.15"
           cy="617.84998"
           cx="737.69"
           style="fill:#cca91f;fill-opacity:1;stroke-width:4.09155416" />
        <circle
           id="circle886"
           r="16.67"
           cy="645.23999"
           cx="692.08002"
           style="fill:#cca91f;fill-opacity:1;stroke-width:4.09155416" />
        <circle
           id="circle888"
           r="15.15"
           cy="659.21002"
           cx="648.92999"
           style="fill:#cca91f;fill-opacity:1;stroke-width:4.09155416" />
        <circle
           id="circle890"
           r="17.99"
           cy="615.07001"
           cx="611.38"
           style="fill:#cca91f;fill-opacity:1;stroke-width:4.09155416" />
        <circle
           id="circle892"
           r="20.92"
           cy="573.09998"
           cx="556.21997"
           style="fill:#cca91f;fill-opacity:1;stroke-width:4.09155416" />
        <circle
           id="circle894"
           r="45.09"
           cy="801.21997"
           cx="721.35999"
           style="fill:#cca91f;fill-opacity:1;stroke-width:4.09155416" />
        <circle
           id="circle896"
           r="37.610001"
           cy="753.46002"
           cx="611.64001"
           style="fill:#cca91f;fill-opacity:1;stroke-width:4.09155416" />
        <circle
           id="circle898"
           r="37.93"
           cy="832.07001"
           cx="549.19"
           style="fill:#cca91f;fill-opacity:1;stroke-width:4.09155416" />
        <circle
           id="circle900"
           r="32.849998"
           cy="691.21997"
           cx="530.19"
           style="fill:#cca91f;fill-opacity:1;stroke-width:4.09155416" />
        <circle
           id="circle902"
           r="32.77"
           cy="771.32001"
           cx="467.76999"
           style="fill:#cca91f;fill-opacity:1;stroke-width:4.09155416" />
        <circle
           id="circle904"
           r="32.66"
           cy="825.78998"
           cx="400.69"
           style="fill:#cca91f;fill-opacity:1;stroke-width:4.09155416" />
        <circle
           id="circle906"
           r="27.84"
           cy="759.44"
           cx="344.53"
           style="fill:#cca91f;fill-opacity:1;stroke-width:4.09155416" />
        <circle
           id="circle908"
           r="27.889999"
           cy="704.84003"
           cx="411.82001"
           style="fill:#cca91f;fill-opacity:1;stroke-width:4.09155416" />
        <circle
           id="circle910"
           r="27.92"
           cy="624.78998"
           cx="474.59"
           style="fill:#cca91f;fill-opacity:1;stroke-width:4.09155416" />
        <circle
           id="circle912"
           r="24.16"
           cy="639.22998"
           cx="378.39999"
           style="fill:#cca91f;fill-opacity:1;stroke-width:4.09155416" />
        <circle
           id="circle914"
           r="23.959999"
           cy="693.76001"
           cx="311.44"
           style="fill:#cca91f;fill-opacity:1;stroke-width:4.09155416" />
        <circle
           id="circle916"
           r="20.74"
           cy="633.06"
           cx="295.94"
           style="fill:#cca91f;fill-opacity:1;stroke-width:4.09155416" />
        <circle
           id="circle918"
           r="17.790001"
           cy="579.83002"
           cx="295.19"
           style="fill:#cca91f;fill-opacity:1;stroke-width:4.09155416" />
        <circle
           id="circle920"
           r="15.14"
           cy="535.73999"
           cx="304.37"
           style="fill:#cca91f;fill-opacity:1;stroke-width:4.09155416" />
        <circle
           id="circle922"
           r="17.99"
           cy="525.40002"
           cx="362.29999"
           style="fill:#cca91f;fill-opacity:1;stroke-width:4.09155416" />
        <circle
           id="circle924"
           r="20.959999"
           cy="498.37"
           cx="425.70001"
           style="fill:#cca91f;fill-opacity:1;stroke-width:4.09155416" />
        <circle
           id="circle926"
           r="23.85"
           cy="559.03003"
           cx="440.91"
           style="fill:#cca91f;fill-opacity:1;stroke-width:4.09155416" />
        <circle
           id="circle928"
           r="20.780001"
           cy="578.72998"
           cx="363.14001"
           style="fill:#cca91f;fill-opacity:1;stroke-width:4.09155416" />
        <circle
           id="circle930"
           r="44.950001"
           cy="527.31"
           cx="145.28999"
           style="fill:#cca91f;fill-opacity:1;stroke-width:4.09155416" />
        <circle
           id="circle932"
           r="38.5"
           cy="456.62"
           cx="242.46001"
           style="fill:#cca91f;fill-opacity:1;stroke-width:4.09155416" />
        <circle
           id="circle934"
           r="38.299999"
           cy="362.32999"
           cx="204.36"
           style="fill:#cca91f;fill-opacity:1;stroke-width:4.09155416" />
        <circle
           id="circle936"
           r="32.830002"
           cy="322.57999"
           cx="298.06"
           style="fill:#cca91f;fill-opacity:1;stroke-width:4.09155416" />
        <circle
           id="circle938"
           r="32.939999"
           cy="416.63"
           cx="336.42001"
           style="fill:#cca91f;fill-opacity:1;stroke-width:4.09155416" />
        <circle
           id="circle940"
           r="28.049999"
           cy="401.56"
           cx="421.67001"
           style="fill:#cca91f;fill-opacity:1;stroke-width:4.09155416" />
        <circle
           id="circle942"
           r="24.15"
           cy="405.38"
           cx="495.39001"
           style="fill:#cca91f;fill-opacity:1;stroke-width:4.09155416" />
        <circle
           id="circle944"
           r="20.34"
           cy="422.62"
           cx="556.21997"
           style="fill:#cca91f;fill-opacity:1;stroke-width:4.09155416" />
        <circle
           id="circle946"
           r="17.74"
           cy="354.07999"
           cx="564.02002"
           style="fill:#cca91f;fill-opacity:1;stroke-width:4.09155416" />
        <circle
           id="circle948"
           r="20.549999"
           cy="328.37"
           cx="517.22998"
           style="fill:#cca91f;fill-opacity:1;stroke-width:4.09155416" />
        <circle
           id="circle950"
           r="24.02"
           cy="311.17999"
           cx="457.12"
           style="fill:#cca91f;fill-opacity:1;stroke-width:4.09155416" />
        <circle
           id="circle952"
           r="28.07"
           cy="307.57001"
           cx="383.63"
           style="fill:#cca91f;fill-opacity:1;stroke-width:4.09155416" />
        <circle
           id="circle954"
           r="31.84"
           cy="237.09"
           cx="284.51999"
           style="fill:#cca91f;fill-opacity:1;stroke-width:4.09155416" />
        <circle
           id="circle956"
           r="28.09"
           cy="222.00999"
           cx="369.70001"
           style="fill:#cca91f;fill-opacity:1;stroke-width:4.09155416" />
        <circle
           id="circle958"
           r="24.219999"
           cy="225.88"
           cx="443.39999"
           style="fill:#cca91f;fill-opacity:1;stroke-width:4.09155416" />
        <circle
           id="circle960"
           r="20.389999"
           cy="243.14"
           cx="503.79999"
           style="fill:#cca91f;fill-opacity:1;stroke-width:4.09155416" />
        <circle
           id="circle962"
           r="18.23"
           cy="268.92999"
           cx="550.22998"
           style="fill:#cca91f;fill-opacity:1;stroke-width:4.09155416" />
        <circle
           id="circle964"
           r="15"
           cy="299.20999"
           cx="584.15002"
           style="fill:#cca91f;fill-opacity:1;stroke-width:4.09155416" />
      </g>
    </g>
    <g
       id="g1048"
       transform="matrix(0.10897409,0.02919952,-0.02919952,0.10897409,550.72192,401.68653)"
       style="fill:#ffffff;stroke-width:6.35878801"
       inkscape:export-filename="/home/holger/coding/CryptoCrawler/assets/bg-pricecrawler.png"
       inkscape:export-xdpi="30.48"
       inkscape:export-ydpi="30.48">
      <path
         id="path1034"
         d="M 460.7,921.7 C 398.5,921.7 338.2,909.5 281.4,885.5 226.5,862.3 177.3,829.1 135,786.8 92.7,744.5 59.5,695.2 36.3,640.4 12.2,583.5 0,523.2 0,461 0,398.8 12.2,338.5 36.2,281.7 59.4,226.8 92.6,177.6 134.9,135.3 177.2,93 226.5,59.8 281.3,36.6 338.1,12.6 398.5,0.4 460.6,0.4 c 62.1,0 122.6,12.1 179.4,36.1 54.9,23.2 104.1,56.4 146.4,98.7 42.3,42.3 75.5,91.6 98.7,146.4 24,56.8 36.2,117.2 36.2,179.3 0,62.2 -12.2,122.5 -36.2,179.3 -23.2,54.9 -56.4,104.1 -98.7,146.4 -42.3,42.3 -91.6,75.5 -146.4,98.7 -56.8,24.2 -117.1,36.4 -179.3,36.4 z m 0,-819 C 365,102.7 275,140 207.3,207.6 139.6,275.3 102.4,365.3 102.4,461 c 0,95.7 37.3,185.7 104.9,253.4 C 275,782 365,819.3 460.7,819.3 556.4,819.3 646.4,782 714.1,714.4 781.7,646.7 819,556.7 819,461 819,365.3 781.7,275.3 714.1,207.6 646.4,140 556.4,102.7 460.7,102.7 Z"
         inkscape:connector-curvature="0"
         style="fill:#ffffff;stroke-width:6.35878801" />
      <path
         id="path1036"
         d="M 433,575.7 H 632.6 V 676 H 509.7 c 2,28.7 3.1,55.3 5.1,83.9 H 411.4 V 677 H 288.5 c 0,-32.8 -4.1,-65.5 2,-96.2 3.1,-16.4 21.5,-30.7 32.8,-45 38.9,-46.1 77.8,-91.1 117.7,-137.2 15.4,-17.4 30.7,-33.8 48.1,-53.2 H 297.7 V 245.1 h 113.6 v -83.9 h 99.3 v 81.9 h 123.9 c 0,33.8 4.1,66.5 -2,97.3 -3.1,16.4 -21.5,30.7 -33.8,45 -38.9,46.1 -77.8,91.1 -117.7,137.2 -15.2,18.3 -30.5,34.6 -48,53.1 z"
         inkscape:connector-curvature="0"
         style="fill:#ffffff;stroke-width:6.35878801" />
    </g>
    <path
       id="path1061"
       d="m 1072.8461,403.96893 h -24.5511 v -9.96165 -6.7849 c 0,-3.21597 -1.4119,-4.62786 -4.6278,-4.62786 h -86.55659 v -4.118 c 0,-0.47062 0,-0.94125 -0.1961,-1.33344 0.039,-0.11769 0.1961,-0.23531 0.1961,-0.3922 v -9.68711 c 0,-0.54906 0.54907,0 0,0 h -3.88256 c -0.31374,0 -0.58828,0.27453 -0.78437,0.50984 l -14.11887,19.37424 h -0.98048 c -1.29424,0 -3.52972,-0.19609 -3.52972,1.09813 v 0.23532 c 0,0.50984 0.78437,0.98047 1.05891,1.33345 l -2.27471,3.52972 -2.39236,-4.00035 c 0.94126,-4.00035 -2.00017,-2.90222 -2.00017,-2.90222 l -2.62768,-4.90238 -9.4518,-13.21683 c 0.23532,0.0784 -0.1177,0.11769 0.11769,0.11769 1.21579,0 1.56878,-0.98047 1.56878,-2.19626 v -3.33362 c 0,-1.2158 -0.98048,-2.19628 -2.19628,-2.19628 -1.21579,0 -2.19627,0.98048 -2.19627,2.19628 v 3.41205 l -3.56892,-2.07861 -2.2355,-3.49049 v -4.118 h 2.74533 c 0.74516,0 0.15689,-1.84331 0.15689,-2.58846 v -0.15689 c 0,-0.74517 0.58827,-0.15687 -0.15689,-0.15687 h -2.82377 l -2.54924,-2.90222 h 8.4321 c 0.66674,0 1.21579,-0.54906 1.21579,-1.2158 0,-0.66671 -0.54905,-1.21577 -1.21579,-1.21577 h -9.80477 l -24.31584,-39.61128 c 0,0 -0.62749,-0.31377 -0.62749,-0.35298 -2.51002,-3.60815 -6.981,-5.33379 -9.41259,-5.88286 V 302.117 l -9.09882,-4.58862 -6.23585,-3.17676 h -0.0392 c -1.56876,-7.76538 -4.03956,-12.74619 -7.41241,-14.90324 -1.92173,-1.2158 -3.49049,-1.60799 -4.00034,-1.09815 h -16.39356 c -0.0784,0 -0.15687,0.11769 -0.19609,0.15689 l -2.11783,-1.60798 h -2.03939 l -6.27506,-3.88269 -3.6866,2.15705 -38.47392,-16.19753 c 0,0 -3.68659,-5.60834 -10.47149,-4.07879 l -33.14013,-14.5895 c -0.3922,-1.29424 -1.21579,-2.863 -1.21579,-2.863 l -9.37336,-0.47062 c -26.47289,0.90203 -21.53129,34.55201 -21.53129,34.55201 h 2.15705 l -0.19609,2.43159 h -2.31392 c 1.84329,2.90221 -0.31376,26.47288 -0.31376,26.47288 l -4.3141,30.47323 c -3.0983,6.1574 1.52955,10.62838 1.52955,10.62838 l -5.21615,42.59193 -6.47114,6.82411 c -6.47115,7.68694 3.0983,10.74603 3.0983,10.74603 l 4.00035,7.33397 c 1.52955,1.80408 -0.62751,7.09866 -0.62751,7.09866 -2.78454,2.15705 0,5.84364 0,5.84364 2.78456,6.7849 3.09832,13.53059 3.09832,13.53059 -1.2158,35.10107 19.41344,32.94403 19.41344,32.94403 3.6866,-1.21579 45.88633,0 45.88633,0 13.25606,0 27.72791,-33.57154 27.72791,-33.57154 1.84329,1.52955 10.15773,-12.31479 10.15773,-12.31479 10.4715,-15.68764 0,-8.94195 0,-8.94195 -4.00035,4.00034 -7.37318,1.52954 -7.37318,1.52954 4.9416,-7.68694 -8.31445,-2.47079 -8.31445,-2.47079 -3.37285,-4.31411 -17.53093,-7.72618 -17.53093,-7.72618 -18.15844,-12.94229 -44.63133,-1.6472 -44.63133,-1.6472 1.56878,-6.62801 -4.9416,-11.21665 -4.9416,-11.21665 l 2.78455,-12.19714 c 3.09831,0.1177 1.52955,-6.86334 1.52955,-6.86334 l 16.94264,-79.14413 54.71062,17.8447 c 34.78734,9.92242 53.57327,25.8846 53.57327,25.8846 3.17676,2.86299 4.98083,6.70645 6.00053,10.58916 h -4.82396 c -0.66672,0 -1.21579,0.54905 -1.21579,1.21578 0,0.66673 0.54907,1.21579 1.21579,1.21579 h 5.45146 c 0.6275,4.86317 0.47063,9.21649 0.47063,9.21649 h 1.33345 v 4.15722 l -9.33414,1.05892 c -2.863,0.54907 -4.66707,4.94161 -6.66725,10.27539 h -4.35331 c -0.31376,0 -1.01971,-0.31374 -1.17658,-0.0392 -0.11769,0.19611 -0.74517,1.0197 -2.19626,3.2552 v -3.76504 c 0,-0.90205 0,-0.90205 -0.90203,-0.90205 H 825.57 c -0.90204,0 -2.35314,0 -2.35314,0.90205 v 7.4124 c 0,0.82361 0.98048,1.49034 1.76486,1.60799 -3.01987,9.21648 -6.03975,25.88459 -2.90222,51.02402 0.0392,0.3922 0.43141,0.70594 0.82361,0.78438 l 5.02004,1.37268 c 0.0784,0.0392 -0.31376,0 -0.31376,0 v 6.19661 c 0,2.863 4.86316,6.39272 9.41258,6.39272 h 30.51245 c 0.86283,0.47062 2.07863,1.4511 3.41206,1.4511 h 8.35367 c -0.6275,0.47063 -1.01969,1.05892 -1.01969,2.07861 0,2.19626 1.72563,4.27489 3.92191,4.43176 0.27453,1.37266 1.49033,2.74533 2.98064,2.74533 h 3.37284 c -0.39218,0.47063 -1.80407,0 -1.80407,0.70594 v 0.50986 l -44.08226,0.58829 c -18.94281,2.70611 -31.17917,1.21577 -34.78733,21.76658 -2.4708,14.04043 16.66812,23.76677 37.76798,24.2374 3.49051,0.0784 178.09363,4.86316 178.09363,4.86316 21.0607,0.47063 38.7093,-9.60867 38.7093,-22.55097 0,-19.0997 -30.5516,-21.88425 -47.6512,-27.96321 -5.7259,-2.03938 -10.4715,-1.80407 -14.3934,-0.11769 l -0.1961,0.58827 c -0.74512,-2.19627 -2.78452,-3.17673 -5.25532,-3.17673 h -18.0408 c -2.3532,0 -4.9809,0.86281 -5.7652,2.94142 l -23.29596,-0.78438 v -0.98047 c 0,-0.70594 0.98048,-0.19611 0.6275,-0.70594 h 2.90221 c 1.49034,0 2.70612,-1.64721 2.98065,-3.05909 2.19616,-0.15689 3.9217,-1.60799 3.9217,-3.80425 0,-0.23532 -0.039,-0.43141 -0.078,-0.43141 h 101.02832 c 2.5493,0 4.7455,-1.45111 5.726,-3.41207 h 7.8831 c 4.5102,0 6.981,-3.52972 6.981,-6.39272 v -35.25799 c 0,-2.78455 -2.4316,-3.88268 -6.981,-3.88268 z M 695.12726,393.30134 h -3.41207 v -7.76538 l 3.41207,-1.45111 z m 0.70594,-16.8642 -2.58846,1.84329 3.0983,-25.76694 z m 37.10125,-103.1462 c 0.31375,-4.31411 -4.3141,-22.47255 -4.3141,-22.47255 0.47062,-0.94125 0.78438,-3.33362 0.98048,-5.49066 l 30.74776,14.43261 c 0,0 0.31375,6.47116 11.09899,6.1574 l 38.78768,17.84468 3.6866,3.09832 c 0,0 0,0 0,0 z m 81.02664,18.78594 -66.7509,-13.02075 1.80409,-1.45109 64.94681,10.9029 z m 37.37576,2.23549 -21.41361,-11.80495 -1.8433,1.52953 -2.4708,-1.52953 1.49034,-2.31393 H 842.591 c 0.0784,0 0.15689,-0.50984 0.23531,-0.50984 0,0 1.13736,0.1177 2.58846,1.09813 2.00018,1.25502 4.66709,4.78473 6.47116,13.49137 l -0.54908,0.0392 z m -25.21786,112.08814 v 28.23774 l -2.51001,-0.27453 c -4.35333,-36.04233 5.25534,-54.16155 6.94177,-57.06377 h 3.0983 c -4.23566,12.11869 -7.53006,29.10056 -7.53006,29.10056 z m 18.70751,17.84468 c -5.09848,2.78456 -13.37371,1.52955 -13.37371,1.52955 v -9.29493 l 9.33414,-4.7455 h 11.9226 c -1.13736,7.76538 -7.88303,12.51088 -7.88303,12.51088 z m 8.4321,-16.39357 h -20.86456 c 1.8433,-32.51263 10.7068,-34.43436 10.7068,-34.43436 h 7.29476 c 6.27506,2.43158 7.56929,13.962 7.56929,13.962 -2.15706,3.64738 -4.70629,20.47236 -4.70629,20.47236 z m 10.98134,-44.16069 h -4.66707 v -4.15724 c 0,-0.47062 0.54908,-1.17657 0.54908,-1.17657 h 5.76519 c -2.15703,0 -1.6472,5.33381 -1.6472,5.33381 z m 18.35453,-42.90568 c -8.00069,-11.45197 -12.00104,-15.4131 -12.74619,-16.23671 l -0.54907,-0.0784 v -0.15687 c 2.43159,0.54907 5.80442,1.80407 7.8046,4.66707 l 6.94177,10.62837 z m 17.4525,27.37492 -1.01969,-2.19627 c -4.86317,-7.53007 -8.98117,-14.00121 -12.47167,-19.0997 l 1.13736,-1.01969 13.64824,22.35489 h -1.29424 z m 17.2564,32.042 v -3.80426 l 4.39253,5.02003 -3.09831,0.19612 c -0.58827,-0.90205 -1.29422,-1.41189 -1.29422,-1.41189 z m 3.80425,4.00035 2.43158,-0.1177 2.0394,2.2355 -3.21597,0.15686 c -0.43141,-0.8236 -0.86282,-1.60797 -1.25501,-2.27469 z m 5.92209,14.90324 h -1.45111 c 0,-2.9022 -0.66672,-5.88286 -1.60798,-8.35366 l 2.35315,-0.43141 0.70594,4.43175 z m 11.64806,-0.78437 c -0.47063,-0.27454 -0.15687,0.78437 -0.94126,0.78437 h -3.2944 l -0.15687,-0.98048 h 4.35331 l 0.0393,0.19611 z m 0,-4.31411 v 1.68643 h -4.35331 l 2.86298,-3.8827 c 0.0393,0 0.1177,0 0.15689,0 h 3.64737 c -0.70595,0.50985 -2.31393,0.94126 -2.31393,2.19627 z m 16.47203,-18.35453 c 0,-0.0784 -0.58829,-0.0784 -0.86283,-0.0784 -1.60797,0 -3.01986,1.29424 -3.01986,2.90222 v 2.90222 c 0,0.23531 0.6275,1.09813 0.70594,1.33344 -1.37268,0.78439 -1.80409,2.31393 -2.19628,4.23566 h -9.05961 l 12.98152,-17.96234 h 1.45112 v 6.66725 z"
       inkscape:connector-curvature="0"
       style="opacity:0.95;fill:#ffffff;stroke-width:0.26458329"
       inkscape:export-filename="/home/holger/coding/CryptoCrawler/assets/bg-pricecrawler.png"
       inkscape:export-xdpi="30.48"
       inkscape:export-ydpi="30.48" />
    <path
       style="fill:#ffffff;stroke-width:0.26458332;opacity:0.8"
       inkscape:connector-curvature="0"
       class="st0"
       d="m 670.62458,569.34544 c -0.46274,-2.69768 -2.02153,-5.22797 -4.75214,-7.69652 5.08981,-0.013 8.75268,-2.64008 10.8658,-7.81466 2.79818,-6.80736 -0.26479,-12.80319 -9.62904,-18.89858 l 5.49284,-10.38286 -6.49018,-3.44171 -5.34827,10.10847 c -1.61194,-0.84936 -3.24194,-1.66445 -4.91439,-2.52373 l 5.38442,-10.17708 -6.47304,-3.43268 -5.49283,10.38285 c -1.40709,-0.69761 -2.64086,-1.39151 -3.85839,-2.03304 v 0 l -8.88284,-4.68054 -3.66761,6.91889 0.0857,0.0452 c 1.56141,0.77894 3.85119,1.9635 4.43331,2.31407 l -0.0262,0.008 0.18863,0.0994 c 2.52081,1.32826 2.53253,3.21868 2.13109,4.5627 l -6.29702,11.90904 v 0 l -8.7448,16.51291 c -0.50047,0.70032 -1.61497,1.73436 -3.36411,0.81271 0,0 0,0 0,0 l -0.22292,-0.11747 0.008,0.0262 c -0.66067,-0.3262 -2.86377,-1.50897 -4.37191,-2.34743 l -0.0686,-0.0361 -5.36937,7.03004 8.32505,4.40854 c 0.94315,0.49697 1.87727,1.0111 2.77712,1.50711 0.54874,0.28915 1.08845,0.59545 1.62004,0.87556 l -5.55609,10.50289 6.47303,3.43268 5.49285,-10.38284 c 1.54243,0.85653 3.14532,1.72307 4.86016,2.62665 l -5.46574,10.33141 6.49018,3.44172 5.54706,-10.48574 c 6.16548,2.81052 10.83042,4.01972 14.73679,3.79949 4.653,-0.26503 8.3437,-2.57076 11.29247,-7.08592 2.42838,-3.69388 3.33994,-7.00391 2.79071,-10.11962 z m -18.63293,-32.95442 c 0.34296,0.18073 0.76357,0.38042 1.22657,0.62439 3.23478,1.59491 9.25753,4.59314 10.59168,8.714 0.47957,1.50154 0.31634,3.05874 -0.52307,4.61019 -0.77708,1.47476 -1.91591,2.43026 -3.3732,2.86741 -4.25804,1.26186 -10.30863,-2.05776 -13.56498,-3.86123 -0.36011,-0.18974 -0.65974,-0.36954 -0.95126,-0.52315 z m 0.28895,38.12135 c -4.97406,1.49805 -12.45607,-2.59773 -16.46693,-4.79877 -0.42872,-0.2259 -0.79696,-0.4418 -1.13993,-0.62251 l 7.27199,-13.71774 c 0.41156,0.21685 0.9179,0.46173 1.46665,0.75088 3.97214,1.98345 11.39296,5.69643 12.94614,10.52427 0.51202,1.60626 0.34694,3.25012 -0.51146,4.87922 -0.79515,1.50904 -2.00443,2.51507 -3.56643,2.98467 z"
       id="path1071"
       inkscape:export-filename="/home/holger/coding/CryptoCrawler/assets/bg-pricecrawler.png"
       inkscape:export-xdpi="30.48"
       inkscape:export-ydpi="30.48" />
    <g
       style="fill:#ffffff;stroke-width:13.08654594"
       transform="matrix(0.05042894,-0.02149448,0.02149448,0.05042894,459.17432,518.31171)"
       id="g1077"
       inkscape:export-filename="/home/holger/coding/CryptoCrawler/assets/bg-pricecrawler.png"
       inkscape:export-xdpi="30.48"
       inkscape:export-ydpi="30.48">
      <path
         style="fill:#ffffff;stroke-width:13.08654594"
         inkscape:connector-curvature="0"
         d="M 460.7,921.7 C 398.5,921.7 338.2,909.5 281.4,885.5 226.5,862.3 177.3,829.1 135,786.8 92.7,744.5 59.5,695.2 36.3,640.4 12.2,583.5 0,523.2 0,461 0,398.8 12.2,338.5 36.2,281.7 59.4,226.8 92.6,177.6 134.9,135.3 177.2,93 226.5,59.8 281.3,36.6 338.1,12.6 398.5,0.4 460.6,0.4 c 62.1,0 122.6,12.1 179.4,36.1 54.9,23.2 104.1,56.4 146.4,98.7 42.3,42.3 75.5,91.6 98.7,146.4 24,56.8 36.2,117.2 36.2,179.3 0,62.2 -12.2,122.5 -36.2,179.3 -23.2,54.9 -56.4,104.1 -98.7,146.4 -42.3,42.3 -91.6,75.5 -146.4,98.7 -56.8,24.2 -117.1,36.4 -179.3,36.4 z m 0,-819 C 365,102.7 275,140 207.3,207.6 139.6,275.3 102.4,365.3 102.4,461 c 0,95.7 37.3,185.7 104.9,253.4 C 275,782 365,819.3 460.7,819.3 556.4,819.3 646.4,782 714.1,714.4 781.7,646.7 819,556.7 819,461 819,365.3 781.7,275.3 714.1,207.6 646.4,140 556.4,102.7 460.7,102.7 Z"
         id="path1073" />
      <path
         style="fill:#ffffff;stroke-width:13.08654594"
         inkscape:connector-curvature="0"
         d="M 433,575.7 H 632.6 V 676 H 509.7 c 2,28.7 3.1,55.3 5.1,83.9 H 411.4 V 677 H 288.5 c 0,-32.8 -4.1,-65.5 2,-96.2 3.1,-16.4 21.5,-30.7 32.8,-45 38.9,-46.1 77.8,-91.1 117.7,-137.2 15.4,-17.4 30.7,-33.8 48.1,-53.2 H 297.7 V 245.1 h 113.6 v -83.9 h 99.3 v 81.9 h 123.9 c 0,33.8 4.1,66.5 -2,97.3 -3.1,16.4 -21.5,30.7 -33.8,45 -38.9,46.1 -77.8,91.1 -117.7,137.2 -15.2,18.3 -30.5,34.6 -48,53.1 z"
         id="path1075" />
    </g>
    <path
       id="path1079"
       d="m 453.67554,557.5571 c -1.77263,0.34297 -3.41951,1.40644 -5.00926,3.24185 -0.0799,-3.35654 -1.86375,-5.73539 -5.30597,-7.05649 -4.52864,-1.75003 -8.43997,0.35399 -12.32867,6.61508 l -6.92442,-3.47706 -2.17888,4.32847 6.74143,3.38557 c -0.53756,1.07496 -1.05228,2.16136 -1.59554,3.27638 l -6.78719,-3.40844 -2.17317,4.31705 6.92442,3.47704 c -0.44036,0.93775 -0.8807,1.76114 -1.28674,2.57309 v 0 l -2.96235,5.92378 4.61437,2.32185 0.0286,-0.0571 c 0.49183,-1.04065 1.24097,-2.56735 1.46401,-2.95618 l 0.006,0.0172 0.0629,-0.1258 c 0.84067,-1.68107 2.08723,-1.71528 2.97923,-1.46937 l 7.9422,3.98603 v 0 l 11.01273,5.53585 c 0.46887,0.32024 1.16643,1.04077 0.58311,2.20724 0,0 0,0 0,0 l -0.0743,0.14865 0.0172,-0.006 c -0.20588,0.44028 -0.95505,1.90978 -1.48688,2.91615 l -0.0228,0.0457 4.71151,3.4426 2.7908,-5.55211 c 0.31454,-0.62896 0.64051,-1.25222 0.95503,-1.85262 0.183,-0.36594 0.37745,-0.72617 0.55473,-1.08067 l 7.00447,3.51709 2.17316,-4.31704 -6.92441,-3.47707 c 0.54327,-1.02923 1.0923,-2.09847 1.66419,-3.24206 l 6.89011,3.45991 2.17888,-4.32848 -6.99303,-3.51137 c 1.76715,-4.1055 2.49927,-7.19895 2.2993,-9.77211 -0.23997,-3.06493 -1.81229,-5.46663 -4.83134,-7.34808 -2.47013,-1.54977 -4.66585,-2.10457 -6.71296,-1.69871 z m -21.47233,12.75004 c 0.11439,-0.22871 0.2402,-0.5089 0.39461,-0.81767 1.00652,-2.15567 2.89947,-6.16966 5.59847,-7.10726 0.98355,-0.33731 2.01281,-0.25148 3.04774,0.28037 0.98349,0.49183 1.62959,1.2295 1.93831,2.18446 0.89184,2.79049 -1.21267,6.82734 -2.35644,9.00016 -0.12009,0.24015 -0.23446,0.44027 -0.33169,0.63468 z m 25.1369,-0.72461 c 1.05764,3.25939 -1.5387,8.25114 -2.9341,10.92712 -0.14297,0.28591 -0.28019,0.53179 -0.39457,0.76051 l -9.14869,-4.60369 c 0.13725,-0.27446 0.29165,-0.61182 0.47466,-0.97777 1.25244,-2.6474 3.59717,-7.59343 6.75937,-8.68539 1.05215,-0.36018 2.13858,-0.27434 3.225,0.26896 1.00634,0.50326 1.68676,1.28668 2.01834,2.31024 z"
       class="st0"
       inkscape:connector-curvature="0"
       style="fill:#ffffff;stroke-width:0.26458332;opacity:0.5"
       inkscape:export-filename="/home/holger/coding/CryptoCrawler/assets/bg-pricecrawler.png"
       inkscape:export-xdpi="30.48"
       inkscape:export-ydpi="30.48" />
    <g
       style="stroke-width:5.34008169;opacity:0.6"
       transform="matrix(0.04954669,0,0,0.04954669,521.83981,543.47892)"
       id="g1193"
       inkscape:export-filename="/home/holger/coding/CryptoCrawler/assets/bg-pricecrawler.png"
       inkscape:export-xdpi="30.48"
       inkscape:export-ydpi="30.48">
      <circle
         style="fill:#ffffff;stroke-width:5.34008169"
         cx="500"
         cy="500"
         r="500"
         id="circle1081" />
      <g
         style="fill:#cca91f;fill-opacity:1;stroke-width:5.34008169"
         id="g1191">
        <circle
           style="fill:#cca91f;fill-opacity:1;stroke-width:5.34008169"
           cx="671.13"
           cy="165.32001"
           r="45.32"
           id="circle1083" />
        <circle
           style="fill:#cca91f;fill-opacity:1;stroke-width:5.34008169"
           cx="683.51001"
           cy="284.20999"
           r="38.369999"
           id="circle1085" />
        <circle
           style="fill:#cca91f;fill-opacity:1;stroke-width:5.34008169"
           cx="784.12"
           cy="298.57999"
           r="38.279999"
           id="circle1087" />
        <circle
           style="fill:#cca91f;fill-opacity:1;stroke-width:5.34008169"
           cx="771.77002"
           cy="399.97"
           r="32.740002"
           id="circle1089" />
        <circle
           style="fill:#cca91f;fill-opacity:1;stroke-width:5.34008169"
           cx="852.28003"
           cy="430.95999"
           r="32.950001"
           id="circle1091" />
        <circle
           style="fill:#cca91f;fill-opacity:1;stroke-width:5.34008169"
           cx="670.57001"
           cy="386.13"
           r="33.540001"
           id="circle1093" />
        <circle
           style="fill:#cca91f;fill-opacity:1;stroke-width:5.34008169"
           cx="641.32001"
           cy="467.75"
           r="28.129999"
           id="circle1095" />
        <circle
           style="fill:#cca91f;fill-opacity:1;stroke-width:5.34008169"
           cx="742.02002"
           cy="481.51999"
           r="27.92"
           id="circle1097" />
        <circle
           style="fill:#cca91f;fill-opacity:1;stroke-width:5.34008169"
           cx="822.40002"
           cy="512.34003"
           r="28.17"
           id="circle1099" />
        <circle
           style="fill:#cca91f;fill-opacity:1;stroke-width:5.34008169"
           cx="782.53003"
           cy="574.47998"
           r="23.76"
           id="circle1101" />
        <circle
           style="fill:#cca91f;fill-opacity:1;stroke-width:5.34008169"
           cx="701.84003"
           cy="543.39001"
           r="24.280001"
           id="circle1103" />
        <circle
           style="fill:#cca91f;fill-opacity:1;stroke-width:5.34008169"
           cx="601.20001"
           cy="529.44"
           r="24.059999"
           id="circle1105" />
        <circle
           style="fill:#cca91f;fill-opacity:1;stroke-width:5.34008169"
           cx="657"
           cy="586.87"
           r="20.969999"
           id="circle1107" />
        <circle
           style="fill:#cca91f;fill-opacity:1;stroke-width:5.34008169"
           cx="737.69"
           cy="617.84998"
           r="21.15"
           id="circle1109" />
        <circle
           style="fill:#cca91f;fill-opacity:1;stroke-width:5.34008169"
           cx="692.08002"
           cy="645.23999"
           r="16.67"
           id="circle1111" />
        <circle
           style="fill:#cca91f;fill-opacity:1;stroke-width:5.34008169"
           cx="648.92999"
           cy="659.21002"
           r="15.15"
           id="circle1113" />
        <circle
           style="fill:#cca91f;fill-opacity:1;stroke-width:5.34008169"
           cx="611.38"
           cy="615.07001"
           r="17.99"
           id="circle1115" />
        <circle
           style="fill:#cca91f;fill-opacity:1;stroke-width:5.34008169"
           cx="556.21997"
           cy="573.09998"
           r="20.92"
           id="circle1117" />
        <circle
           style="fill:#cca91f;fill-opacity:1;stroke-width:5.34008169"
           cx="721.35999"
           cy="801.21997"
           r="45.09"
           id="circle1119" />
        <circle
           style="fill:#cca91f;fill-opacity:1;stroke-width:5.34008169"
           cx="611.64001"
           cy="753.46002"
           r="37.610001"
           id="circle1121" />
        <circle
           style="fill:#cca91f;fill-opacity:1;stroke-width:5.34008169"
           cx="549.19"
           cy="832.07001"
           r="37.93"
           id="circle1123" />
        <circle
           style="fill:#cca91f;fill-opacity:1;stroke-width:5.34008169"
           cx="530.19"
           cy="691.21997"
           r="32.849998"
           id="circle1125" />
        <circle
           style="fill:#cca91f;fill-opacity:1;stroke-width:5.34008169"
           cx="467.76999"
           cy="771.32001"
           r="32.77"
           id="circle1127" />
        <circle
           style="fill:#cca91f;fill-opacity:1;stroke-width:5.34008169"
           cx="400.69"
           cy="825.78998"
           r="32.66"
           id="circle1129" />
        <circle
           style="fill:#cca91f;fill-opacity:1;stroke-width:5.34008169"
           cx="344.53"
           cy="759.44"
           r="27.84"
           id="circle1131" />
        <circle
           style="fill:#cca91f;fill-opacity:1;stroke-width:5.34008169"
           cx="411.82001"
           cy="704.84003"
           r="27.889999"
           id="circle1133" />
        <circle
           style="fill:#cca91f;fill-opacity:1;stroke-width:5.34008169"
           cx="474.59"
           cy="624.78998"
           r="27.92"
           id="circle1135" />
        <circle
           style="fill:#cca91f;fill-opacity:1;stroke-width:5.34008169"
           cx="378.39999"
           cy="639.22998"
           r="24.16"
           id="circle1137" />
        <circle
           style="fill:#cca91f;fill-opacity:1;stroke-width:5.34008169"
           cx="311.44"
           cy="693.76001"
           r="23.959999"
           id="circle1139" />
        <circle
           style="fill:#cca91f;fill-opacity:1;stroke-width:5.34008169"
           cx="295.94"
           cy="633.06"
           r="20.74"
           id="circle1141" />
        <circle
           style="fill:#cca91f;fill-opacity:1;stroke-width:5.34008169"
           cx="295.19"
           cy="579.83002"
           r="17.790001"
           id="circle1143" />
        <circle
           style="fill:#cca91f;fill-opacity:1;stroke-width:5.34008169"
           cx="304.37"
           cy="535.73999"
           r="15.14"
           id="circle1145" />
        <circle
           style="fill:#cca91f;fill-opacity:1;stroke-width:5.34008169"
           cx="362.29999"
           cy="525.40002"
           r="17.99"
           id="circle1147" />
        <circle
           style="fill:#cca91f;fill-opacity:1;stroke-width:5.34008169"
           cx="425.70001"
           cy="498.37"
           r="20.959999"
           id="circle1149" />
        <circle
           style="fill:#cca91f;fill-opacity:1;stroke-width:5.34008169"
           cx="440.91"
           cy="559.03003"
           r="23.85"
           id="circle1151" />
        <circle
           style="fill:#cca91f;fill-opacity:1;stroke-width:5.34008169"
           cx="363.14001"
           cy="578.72998"
           r="20.780001"
           id="circle1153" />
        <circle
           style="fill:#cca91f;fill-opacity:1;stroke-width:5.34008169"
           cx="145.28999"
           cy="527.31"
           r="44.950001"
           id="circle1155" />
        <circle
           style="fill:#cca91f;fill-opacity:1;stroke-width:5.34008169"
           cx="242.46001"
           cy="456.62"
           r="38.5"
           id="circle1157" />
        <circle
           style="fill:#cca91f;fill-opacity:1;stroke-width:5.34008169"
           cx="204.36"
           cy="362.32999"
           r="38.299999"
           id="circle1159" />
        <circle
           style="fill:#cca91f;fill-opacity:1;stroke-width:5.34008169"
           cx="298.06"
           cy="322.57999"
           r="32.830002"
           id="circle1161" />
        <circle
           style="fill:#cca91f;fill-opacity:1;stroke-width:5.34008169"
           cx="336.42001"
           cy="416.63"
           r="32.939999"
           id="circle1163" />
        <circle
           style="fill:#cca91f;fill-opacity:1;stroke-width:5.34008169"
           cx="421.67001"
           cy="401.56"
           r="28.049999"
           id="circle1165" />
        <circle
           style="fill:#cca91f;fill-opacity:1;stroke-width:5.34008169"
           cx="495.39001"
           cy="405.38"
           r="24.15"
           id="circle1167" />
        <circle
           style="fill:#cca91f;fill-opacity:1;stroke-width:5.34008169"
           cx="556.21997"
           cy="422.62"
           r="20.34"
           id="circle1169" />
        <circle
           style="fill:#cca91f;fill-opacity:1;stroke-width:5.34008169"
           cx="564.02002"
           cy="354.07999"
           r="17.74"
           id="circle1171" />
        <circle
           style="fill:#cca91f;fill-opacity:1;stroke-width:5.34008169"
           cx="517.22998"
           cy="328.37"
           r="20.549999"
           id="circle1173" />
        <circle
           style="fill:#cca91f;fill-opacity:1;stroke-width:5.34008169"
           cx="457.12"
           cy="311.17999"
           r="24.02"
           id="circle1175" />
        <circle
           style="fill:#cca91f;fill-opacity:1;stroke-width:5.34008169"
           cx="383.63"
           cy="307.57001"
           r="28.07"
           id="circle1177" />
        <circle
           style="fill:#cca91f;fill-opacity:1;stroke-width:5.34008169"
           cx="284.51999"
           cy="237.09"
           r="31.84"
           id="circle1179" />
        <circle
           style="fill:#cca91f;fill-opacity:1;stroke-width:5.34008169"
           cx="369.70001"
           cy="222.00999"
           r="28.09"
           id="circle1181" />
        <circle
           style="fill:#cca91f;fill-opacity:1;stroke-width:5.34008169"
           cx="443.39999"
           cy="225.88"
           r="24.219999"
           id="circle1183" />
        <circle
           style="fill:#cca91f;fill-opacity:1;stroke-width:5.34008169"
           cx="503.79999"
           cy="243.14"
           r="20.389999"
           id="circle1185" />
        <circle
           style="fill:#cca91f;fill-opacity:1;stroke-width:5.34008169"
           cx="550.22998"
           cy="268.92999"
           r="18.23"
           id="circle1187" />
        <circle
           style="fill:#cca91f;fill-opacity:1;stroke-width:5.34008169"
           cx="584.15002"
           cy="299.20999"
           r="15"
           id="circle1189" />
      </g>
    </g>
  </g>
  <style
     id="style843"
     type="text/css">
	.st0{fill:#231F20;}
</style>
</svg>
